#N canvas 1066 202 1280 984 12;
#X obj 186 121 vsl 16 220 -0.5 0.5 0 1 empty empty empty -20 4 0 10 #c6ffc7 #000000 #000000 10950 1;
#X floatatom 76 132 8 -0.5 0.5 2 c.pos_avg - - 12;
#X floatatom 76 247 8 0 0 2 c.pos_avg - - 12;
#X obj 186 370 outlet;
#X obj 346 50 loadbang;
#X obj 205 121 vsl 8 220 -0.5 0.5 0 1 empty empty empty -3 -8 0 8 #bbbbbb #000000 #000000 11068 1;
#X floatatom 76 278 11 0 0 2 r.pos_avg - - 8;
#X obj 285 15 inlet;
#X obj 218 121 vsl 16 220 0 0.5 0 1 empty empty empty -1 -8 0 10 #c6ffc7 #000000 #000000 0 1;
#X obj 237 121 vsl 8 220 0 0.5 0 1 empty empty empty -3 -8 0 8 #bbbbbb #000000 #000000 0 1;
#X obj 218 370 outlet;
#X text 180 341 opos;
#X text 212 341 ovel;
#X floatatom 76 167 8 -0.5 0.5 2 c.vel_avg - - 12;
#X obj 324 15 inlet;
#X floatatom 76 309 8 0 0 2 c.vel_avg - - 12;
#X floatatom 76 340 11 0 0 2 r.vel_avg - - 8;
#X obj 104 55 hsl 220 16 -0.5 0.5 0 0 empty empty empty -2 -10 0 12 #c6ffc7 #000000 #000000 0 1;
#X obj 104 74 hsl 220 8 -0.5 0.5 0 0 empty empty empty -2 -10 0 12 #bbbbbb #000000 #000000 0 1;
#X obj 104 87 hsl 220 16 -0 0.5 0 0 empty empty empty -2 -10 0 12 #c6ffc7 #000000 #000000 0 1;
#X obj 104 106 hsl 220 8 0 0.5 0 0 empty empty empty -2 -10 0 12 #bbbbbb #000000 #000000 0 1;
#X text 69 52 opos;
#X text 69 84 ovel;
#X obj 181 15 inlet;
#X obj 220 15 inlet;
#X floatatom 6 132 8 -0.5 0.5 2 c.pos_dif - - 12;
#X floatatom 6 167 8 -0.5 0.5 2 c.vel_dif - - 12;
#X floatatom 6 247 8 0 0 2 c.pos_dif - - 12;
#X floatatom 6 278 11 0 0 2 r.pos_dif - - 8;
#X floatatom 6 309 8 0 0 2 c.vel_dif - - 12;
#X floatatom 6 340 11 0 0 2 r.vel_dif - - 8;
#X obj 99 370 outlet;
#X obj 145 370 outlet;
#X obj 6 55 bng 28 250 50 0 empty empty 0 9 15 0 19 #faff00 #ff0400 #000000;
#X obj 36 55 bng 28 250 50 0 empty empty 0 9 15 0 19 #faff00 #ff0400 #000000;
#X obj 6 6 inlet;
#X obj 36 6 inlet;
#X obj 346 73 0, f 2;
#X obj 366 73 0, f 2;
#X obj 104 15 inlet;
#X connect 0 0 2 0;
#X connect 0 0 3 0;
#X connect 1 0 0 0;
#X connect 4 0 37 0;
#X connect 4 0 38 0;
#X connect 5 0 6 0;
#X connect 7 0 5 0;
#X connect 8 0 10 0;
#X connect 8 0 15 0;
#X connect 9 0 16 0;
#X connect 13 0 8 0;
#X connect 14 0 9 0;
#X connect 17 0 27 0;
#X connect 17 0 31 0;
#X connect 18 0 28 0;
#X connect 19 0 29 0;
#X connect 19 0 32 0;
#X connect 20 0 30 0;
#X connect 23 0 18 0;
#X connect 24 0 20 0;
#X connect 25 0 17 0;
#X connect 26 0 19 0;
#X connect 33 0 37 0;
#X connect 34 0 38 0;
#X connect 35 0 33 0;
#X connect 36 0 34 0;
#X connect 37 0 1 0;
#X connect 37 0 25 0;
#X connect 38 0 13 0;
#X connect 38 0 26 0;
#X connect 39 0 26 0;
#X connect 39 0 13 0;
#X coords 0 -1 1 1 330 310 2 0 50;
