#N canvas 1198 550 376 210 12;
#X declare -path f2b2f;
#X floatatom 5 105 3 0 0 0 - - - 8;
#X floatatom 22 105 3 0 0 0 - - - 8;
#X floatatom 39 105 3 0 0 0 - - - 8;
#X floatatom 56 105 3 0 0 0 - - - 8;
#X obj 5 46 inlet;
#X obj 5 129 outlet;
#X obj 51 129 outlet;
#X obj 97 129 outlet;
#X obj 143 129 outlet;
#X obj 0 0 declare -path f2b2f;
#X obj 5 75 float2bytes;
#X connect 4 0 10 0;
#X connect 10 0 0 0;
#X connect 10 0 5 0;
#X connect 10 1 1 0;
#X connect 10 1 6 0;
#X connect 10 2 2 0;
#X connect 10 2 7 0;
#X connect 10 3 3 0;
#X connect 10 3 8 0;
#X coords 0 -1 1 1 78 24 2 0 100;
