#N canvas -10 -8 1280 984 12;
#X floatatom 120 102 5 0 0 0 - - - 16;
#X obj 102 107 bng 18 250 50 0 empty empty empty 0 -9 0 10 #fcfcfc #000000 #000000;
#X obj 172 107 bng 18 250 50 0 empty empty empty 0 -9 0 10 #fcfcfc #000000 #000000;
#X obj 137 133 +;
#X obj 172 133 1;
#X obj 102 133 -1;
#X obj 120 162 outlet;
#X obj 120 69 inlet;
#X connect 0 0 3 1;
#X connect 0 0 6 0;
#X connect 1 0 5 0;
#X connect 2 0 4 0;
#X connect 3 0 0 0;
#X connect 4 0 3 0;
#X connect 5 0 3 0;
#X connect 7 0 0 0;
#X coords 0 -1 1 1 92 27 2 100 100;
