#N canvas 0 0 1920 1011 10;
#X declare -path f2b2f;
#X declare -path queuestream;
#X declare -path timseq;
#X obj 1428 822 bng 120 250 50 0 empty empty STOP 0 61 0 50 #ff0400 #00faff #000000;
#X obj 1419 469 md;
#X obj 1 1 declare -path f2b2f;
#X obj 1577 470 mtva;
#X obj 1207 1317 sj 1;
#X obj 1628 1317 sj 7;
#X obj 786 655 sj 6;
#X obj 2049 655 sj 12;
#X text 4849 3473 random-entity;
#X obj 587 1317 dj 2;
#X obj 587 986 dj 4;
#X obj 2049 1317 dj 8;
#X obj 1321 986 dj 13;
#X obj 210 90 bng 18 250 50 0 empty empty empty 0 -9 0 10 #fcfcfc #000000 #000000;
#X obj 294 75 bng 18 250 50 0 empty empty empty 0 -9 0 10 #fcfcfc #000000 #000000;
#X obj 266 93 bng 18 250 50 0 empty empty empty 0 -9 0 10 #fcfcfc #000000 #000000;
#X obj 238 111 bng 18 250 50 0 empty empty empty 0 -9 0 10 #fcfcfc #000000 #000000;
#X obj 238 129 bng 18 250 50 0 empty empty empty 0 -9 0 10 #fcfcfc #000000 #000000;
#X obj 125 75 bng 18 250 50 0 empty empty empty 0 -9 0 10 #fcfcfc #000000 #000000;
#X obj 153 93 bng 18 250 50 0 empty empty empty 0 -9 0 10 #fcfcfc #000000 #000000;
#X obj 181 111 bng 18 250 50 0 empty empty empty 0 -9 0 10 #fcfcfc #000000 #000000;
#X obj 181 129 bng 18 250 50 0 empty empty empty 0 -9 0 10 #fcfcfc #000000 #000000;
#X text 257 129 sj r_shoulder_z(7);
#X text 257 111 dj r_shoulder_xy(8 \, 9);
#X text 285 93 dj l_elbow(10 \, 11);
#X text 313 75 sj l_wrist(12);
#X text 69 129 sj l_shoulder_z(1);
#X text 45 111 dj l_shoulder_xy(2 \, 3);
#X text 53 93 dj l_elbow(4 \, 5);
#X text 43 75 sj l_wrist(6);
#X text 171 72 dj neck(13 \, 14);
#X text 182 168 pi3hat buses;
#X msg 193 152 1, f 1;
#X msg 213 152 2, f 1;
#X msg 233 152 3, f 1;
#X obj 1465 335 bng 18 250 50 0 empty empty empty 17 7 0 10 #fcfcfc #000000 #000000;
#X obj 1395 195 loadbang;
#X obj 1395 356 netsend -u -b;
#X msg 1395 219 disconnect;
#X obj 1401 335 r cmdbytes;
#X obj 1395 377 tgl 20 0 empty empty empty 0 -10 0 12 #fcfcfc #000000 #000000 0 1;
#X msg 1578 285 listen 0;
#X obj 1578 356 netreceive -u -b;
#X obj 1578 377 s rplbytes;
#X obj 1642 377 bng 18 250 50 0 empty empty empty 0 -9 0 10 #fcfcfc #000000 #000000;
#X obj 1680 376 print rplbytes;
#X msg 1578 309 listen 5555;
#X obj 1680 356 spigot;
#X obj 1702 336 tgl 18 0 empty empty empty 0 -9 0 10 #fcfcfc #000000 #000000 0 1;
#X obj 1479 356 spigot;
#X obj 1501 336 tgl 18 0 empty empty empty 0 -9 0 10 #fcfcfc #000000 #000000 0 1;
#X obj 1479 376 print cmdbytes;
#X obj 2049 986 dj 10;
#X obj 1668 822 bng 120 250 50 0 empty empty SAVE 0 61 0 50 #9c00ff #f354f9 #faff00;
#X obj 1548 822 bng 120 250 50 0 empty empty LOAD 0 61 0 50 #ff8300 #68ff78 #0400ff;
#X obj 1805 878 1;
#X obj 1827 878 2;
#X obj 1419 741 s all_stop;
#X obj 1650 741 s all_maxtrq;
#X obj 1723 759 s all_maxvel;
#X obj 1744 783 s all_maxacc;
#X obj 1477 777 s all_outpos0;
#X obj 1527 741 s all_outvel0;
#X obj 1565 942 idx;
#X obj 1685 942 idx;
#X obj 1797 923 s cmdbytes;
#X obj 1577 759 s all_maxtva0;
#X obj 1477 473 bng 50 250 50 0 empty empty 0 13 26 0 40 #faff00 #ff0400 #000000;
#X obj 1527 473 bng 50 250 50 0 empty empty 0 13 26 0 40 #faff00 #ff0400 #000000;
#X obj 1470 759 s all_mode;
#X obj 5 235 plotter 1;
#X obj 671 235 plotter 7;
#X obj 227 235 plotter 2;
#X obj 893 235 plotter 8;
#X obj 449 235 plotter 3;
#X obj 5 445 plotter 4;
#X obj 1115 235 plotter 9;
#X obj 671 445 plotter 10;
#X obj 227 445 plotter 5;
#X obj 449 445 plotter 6;
#X obj 893 445 plotter 11;
#X obj 1115 445 plotter 12;
#X obj 449 25 plotter 13;
#X obj 671 25 plotter 14;
#X obj 1751 474 loadbang;
#X obj 1733 474 bng 18 250 50 0 empty empty empty 0 -9 0 10 #fcfcfc #000000 #000000;
#X msg 1395 264 connect 192.168.0.103 8888;
#X obj 1912 900 >> 8;
#X obj 1940 900 & 255;
#X obj 1912 922 & 255;
#X obj 1797 900 pack 0 f 0 f f f f;
#X obj 1977 900 >> 8;
#X obj 2005 900 & 255;
#X obj 1977 922 & 255;
#X floatatom 1532 568 7 0 0 0 - - - 0;
#X obj 1532 795 s all_outvel;
#X obj 1532 526 loadbang;
#X obj 1831 853 t b b;
#X obj 1532 547 0.1;
#X msg 1395 309 connect 127.0.0.1 8888;
#X obj 1395 243 bng 18 250 50 0 empty empty empty 0 -9 0 10 #fcfcfc #000000 #000000;
#X obj 1413 243 t b b;
#X obj 1395 288 bng 18 250 50 0 empty empty empty 0 -9 0 10 #fcfcfc #000000 #000000;
#X obj 1413 288 t b b;
#X obj 2049 63 udpsrr 1;
#X obj 2182 63 udpsrr 2;
#X obj 2315 63 udpsrr 3;
#X obj 2448 63 udpsrr 4;
#X obj 2581 63 udpsrr 5;
#X obj 2714 63 udpsrr 6;
#X obj 2714 359 udpsrr 12;
#X obj 2581 359 udpsrr 11;
#X obj 2448 359 udpsrr 10;
#X obj 2315 359 udpsrr 9;
#X obj 2182 359 udpsrr 8;
#X obj 2049 359 udpsrr 7;
#X obj 2847 63 udpsrr 13;
#X obj 2847 359 udpsrr 14;
#X text 4038 1715 random-entity;
#X obj 1781 495 16;
#X obj 1852 721 sequence;
#X obj 1952 664 tgl 50 0 empty empty Running 0 -10 0 12 #fcfcfc #000000 #000000 0 1;
#X obj 1852 664 bng 50 250 50 0 empty empty Start 0 -10 0 12 #00ff04 #0400ff #000000;
#X obj 1902 664 bng 50 250 50 0 empty empty Stop 0 -10 0 12 #ff0400 #faff00 #000000;
#X obj 2980 301 udpsjrr 1;
#X obj 2980 211 udpdjrr 2;
#X obj 2980 121 udpdjrr 4;
#X obj 2980 55 udpsjrr 6;
#X obj 2980 -35 udpdjrr 13;
#X obj 3120 301 udpsjrr 7;
#X obj 3120 211 udpdjrr 8;
#X obj 3120 121 udpdjrr 10;
#X obj 3120 55 udpsjrr 12;
#X obj 1852 763 < 50000;
#X obj 1852 742 t f f;
#X obj 1852 805 f, f 2;
#X obj 1871 805 f, f 2;
#X obj 1852 784 sel 1 0;
#X obj 1852 826 t b f;
#X obj 1878 335 bng 18 250 50 0 empty empty empty 17 7 0 10 #fcfcfc #000000 #000000;
#X obj 1808 195 loadbang;
#X obj 1808 356 netsend -u -b;
#X msg 1808 219 disconnect;
#X obj 1808 377 tgl 20 0 empty empty empty 0 -10 0 12 #fcfcfc #000000 #000000 0 1;
#X obj 1892 356 spigot;
#X obj 1914 336 tgl 18 0 empty empty empty 0 -9 0 10 #fcfcfc #000000 #000000 0 1;
#X obj 1808 243 bng 18 250 50 0 empty empty empty 0 -9 0 10 #fcfcfc #000000 #000000;
#X obj 1826 243 t b b;
#X obj 1808 288 bng 18 250 50 0 empty empty empty 0 -9 0 10 #fcfcfc #000000 #000000;
#X obj 1826 288 t b b;
#X msg 1808 309 connect 127.0.0.1 7777;
#X obj 1954 805 pack 0 0;
#X obj 1999 763 >> 8;
#X obj 1954 784 & 255;
#X obj 1999 784 & 255;
#X obj 1890 826 t f f;
#X msg 1808 264 connect 192.168.0.9 7777;
#X obj 119 1 declare -path queuestream;
#X obj 273 1 declare -path timseq;
#X obj 1954 826 s cuebytes;
#X obj 1814 335 r cuebytes;
#X obj 1892 376 print cuebytes;
#X obj 1890 805 - 50000;
#X obj 1797 853 t b b;
#X connect 0 0 1 0;
#X connect 1 0 57 0;
#X connect 1 1 69 0;
#X connect 3 0 66 0;
#X connect 3 1 58 0;
#X connect 3 2 59 0;
#X connect 3 3 60 0;
#X connect 15 0 14 0;
#X connect 16 0 15 0;
#X connect 17 0 16 0;
#X connect 19 0 18 0;
#X connect 20 0 19 0;
#X connect 21 0 20 0;
#X connect 32 0 21 0;
#X connect 33 0 17 0;
#X connect 34 0 13 0;
#X connect 36 0 46 0;
#X connect 36 0 100 0;
#X connect 37 0 40 0;
#X connect 38 0 37 0;
#X connect 39 0 35 0;
#X connect 39 0 37 0;
#X connect 39 0 49 0;
#X connect 41 0 42 0;
#X connect 42 0 43 0;
#X connect 42 0 44 0;
#X connect 42 0 47 0;
#X connect 46 0 42 0;
#X connect 47 0 45 0;
#X connect 48 0 47 1;
#X connect 49 0 51 0;
#X connect 50 0 49 1;
#X connect 53 0 97 0;
#X connect 54 0 163 0;
#X connect 55 0 90 1;
#X connect 56 0 90 1;
#X connect 63 0 87 0;
#X connect 63 0 88 0;
#X connect 64 0 91 0;
#X connect 64 0 92 0;
#X connect 67 0 61 0;
#X connect 68 0 62 0;
#X connect 84 0 119 0;
#X connect 85 0 119 0;
#X connect 86 0 37 0;
#X connect 87 0 89 0;
#X connect 88 0 90 3;
#X connect 89 0 90 4;
#X connect 90 0 65 0;
#X connect 91 0 93 0;
#X connect 92 0 90 5;
#X connect 93 0 90 6;
#X connect 94 0 95 0;
#X connect 96 0 98 0;
#X connect 97 0 90 0;
#X connect 97 1 56 0;
#X connect 98 0 94 0;
#X connect 99 0 37 0;
#X connect 100 0 101 0;
#X connect 101 0 86 0;
#X connect 101 1 38 0;
#X connect 102 0 103 0;
#X connect 103 0 99 0;
#X connect 103 1 38 0;
#X connect 119 0 3 4;
#X connect 119 0 3 7;
#X connect 119 0 3 1;
#X connect 120 0 134 0;
#X connect 120 1 121 0;
#X connect 122 0 120 0;
#X connect 123 0 120 1;
#X connect 133 0 137 0;
#X connect 134 0 133 0;
#X connect 134 1 135 1;
#X connect 134 1 136 1;
#X connect 135 0 138 0;
#X connect 136 0 162 0;
#X connect 137 0 135 0;
#X connect 137 1 136 0;
#X connect 138 0 54 0;
#X connect 138 1 63 0;
#X connect 140 0 146 0;
#X connect 141 0 143 0;
#X connect 142 0 141 0;
#X connect 144 0 161 0;
#X connect 145 0 144 1;
#X connect 146 0 147 0;
#X connect 147 0 156 0;
#X connect 147 1 142 0;
#X connect 148 0 149 0;
#X connect 149 0 150 0;
#X connect 149 1 142 0;
#X connect 150 0 141 0;
#X connect 151 0 159 0;
#X connect 152 0 154 0;
#X connect 153 0 151 0;
#X connect 154 0 151 1;
#X connect 155 0 153 0;
#X connect 155 1 152 0;
#X connect 156 0 141 0;
#X connect 160 0 139 0;
#X connect 160 0 141 0;
#X connect 160 0 144 0;
#X connect 162 0 155 0;
#X connect 163 0 90 0;
#X connect 163 1 55 0;
