#N canvas 0 0 2560 1011 10;
#X declare -path f2b2f;
#X obj 1430 895 bng 120 250 50 0 empty empty STOP 0 61 0 50 #ff0400 #00faff #000000;
#X obj 1421 525 md;
#X obj 0 -2 declare -path f2b2f;
#X obj 1579 526 mtva;
#X obj 1209 1390 sj 1;
#X obj 1630 1390 sj 7;
#X obj 788 728 sj 6;
#X obj 2051 728 sj 12;
#X text 4851 3546 random-entity;
#X obj 589 1390 dj 2;
#X obj 589 1059 dj 4;
#X obj 2051 1390 dj 8;
#X obj 1323 1059 dj 13;
#X obj 319 23 bng 18 250 50 0 empty empty empty 0 -9 0 10 #fcfcfc #000000 #000000;
#X obj 403 8 bng 18 250 50 0 empty empty empty 0 -9 0 10 #fcfcfc #000000 #000000;
#X obj 375 26 bng 18 250 50 0 empty empty empty 0 -9 0 10 #fcfcfc #000000 #000000;
#X obj 347 44 bng 18 250 50 0 empty empty empty 0 -9 0 10 #fcfcfc #000000 #000000;
#X obj 347 62 bng 18 250 50 0 empty empty empty 0 -9 0 10 #fcfcfc #000000 #000000;
#X obj 234 8 bng 18 250 50 0 empty empty empty 0 -9 0 10 #fcfcfc #000000 #000000;
#X obj 262 26 bng 18 250 50 0 empty empty empty 0 -9 0 10 #fcfcfc #000000 #000000;
#X obj 290 44 bng 18 250 50 0 empty empty empty 0 -9 0 10 #fcfcfc #000000 #000000;
#X obj 290 62 bng 18 250 50 0 empty empty empty 0 -9 0 10 #fcfcfc #000000 #000000;
#X text 366 62 sj r_shoulder_z(7);
#X text 366 44 dj r_shoulder_xy(8 \, 9);
#X text 394 26 dj l_elbow(10 \, 11);
#X text 422 8 sj l_wrist(12);
#X text 178 62 sj l_shoulder_z(1);
#X text 154 44 dj l_shoulder_xy(2 \, 3);
#X text 162 26 dj l_elbow(4 \, 5);
#X text 152 8 sj l_wrist(6);
#X text 280 5 dj neck(13 \, 14);
#X text 291 101 pi3hat buses;
#X msg 302 85 1, f 1;
#X msg 322 85 2, f 1;
#X msg 342 85 3, f 1;
#X obj 70 163 bng 18 250 50 0 empty empty empty 17 7 0 10 #fcfcfc #000000 #000000;
#X obj 0 23 loadbang;
#X obj 0 184 netsend -u -b;
#X msg 0 47 disconnect;
#X obj 6 163 r cmdbytes;
#X obj 0 205 tgl 20 0 empty empty empty 0 -10 0 12 #fcfcfc #000000 #000000 0 1;
#X msg 183 113 listen 0;
#X obj 183 184 netreceive -u -b;
#X obj 183 205 s rplbytes;
#X obj 247 205 bng 18 250 50 0 empty empty empty 0 -9 0 10 #fcfcfc #000000 #000000;
#X obj 285 204 print rplbytes;
#X msg 183 137 listen 5555;
#X obj 285 184 spigot;
#X obj 307 164 tgl 18 0 empty empty empty 0 -9 0 10 #fcfcfc #000000 #000000 0 1;
#X obj 84 184 spigot;
#X obj 106 164 tgl 18 0 empty empty empty 0 -9 0 10 #fcfcfc #000000 #000000 0 1;
#X obj 84 204 print cmdbytes;
#X obj 2051 1059 dj 10;
#X obj 1670 895 bng 120 250 50 0 empty empty SAVE 0 61 0 50 #9c00ff #f354f9 #faff00;
#X obj 1550 895 bng 120 250 50 0 empty empty LOAD 0 61 0 50 #ff8300 #68ff78 #0400ff;
#X obj 1807 951 1;
#X obj 1829 951 2;
#X obj 1421 797 s all_stop;
#X obj 1652 797 s all_maxtrq;
#X obj 1725 815 s all_maxvel;
#X obj 1798 797 s all_maxacc;
#X obj 1479 833 s all_outpos0;
#X obj 1529 797 s all_outvel0;
#X obj 1567 1015 idx;
#X obj 1687 1015 idx;
#X obj 1799 996 s cmdbytes;
#X obj 1579 815 s all_maxtva0;
#X obj 1479 529 bng 50 250 50 0 empty empty 0 13 26 0 40 #faff00 #ff0400 #000000;
#X obj 1529 529 bng 50 250 50 0 empty empty 0 13 26 0 40 #faff00 #ff0400 #000000;
#X obj 1472 815 s all_mode;
#X obj 7 308 plotter 1;
#X obj 673 308 plotter 7;
#X obj 229 308 plotter 2;
#X obj 895 308 plotter 8;
#X obj 451 308 plotter 3;
#X obj 7 518 plotter 4;
#X obj 1117 308 plotter 9;
#X obj 673 518 plotter 10;
#X obj 229 518 plotter 5;
#X obj 451 518 plotter 6;
#X obj 895 518 plotter 11;
#X obj 1117 518 plotter 12;
#X obj 451 98 plotter 13;
#X obj 673 98 plotter 14;
#X obj 1753 530 loadbang;
#X obj 1735 530 bng 18 250 50 0 empty empty empty 0 -9 0 10 #fcfcfc #000000 #000000;
#X msg 0 92 connect 192.168.0.103 8888;
#X obj 1914 973 >> 8;
#X obj 1942 973 & 255;
#X obj 1914 995 & 255;
#X obj 1799 973 pack 0 f 0 f f f f;
#X obj 1979 973 >> 8;
#X obj 2007 973 & 255;
#X obj 1979 995 & 255;
#X floatatom 1534 624 7 0 0 0 - - - 0;
#X obj 1534 851 s all_outvel;
#X obj 1534 582 loadbang;
#X obj 1799 928 t b b;
#X obj 1833 928 t b b;
#X obj 1534 603 0.1;
#X msg 0 137 connect 127.0.0.1 8888;
#X obj 0 71 bng 18 250 50 0 empty empty empty 0 -9 0 10 #fcfcfc #000000 #000000;
#X obj 18 71 t b b;
#X obj 1783 551 32;
#X obj 0 116 bng 18 250 50 0 empty empty empty 0 -9 0 10 #fcfcfc #000000 #000000;
#X obj 18 116 t b b;
#X obj 2051 136 udpsrr 1;
#X obj 2184 136 udpsrr 2;
#X obj 2317 136 udpsrr 3;
#X obj 2450 136 udpsrr 4;
#X obj 2583 136 udpsrr 5;
#X obj 2716 136 udpsrr 6;
#X obj 2716 432 udpsrr 12;
#X obj 2583 432 udpsrr 11;
#X obj 2450 432 udpsrr 10;
#X obj 2317 432 udpsrr 9;
#X obj 2184 432 udpsrr 8;
#X obj 2051 432 udpsrr 7;
#X obj 2849 136 udpsrr 13;
#X obj 2849 432 udpsrr 14;
#X obj 2982 428 udpdjrr 102;
#X obj 2982 614 udpsjrr 101;
#X obj 2982 242 udpdjrr 104;
#X obj 2982 128 udpsjrr 106;
#X obj 3171 128 udpsjrr 112;
#X obj 3171 614 udpsjrr 107;
#X obj 3171 428 udpdjrr 108;
#X obj 3171 242 udpdjrr 110;
#X obj 3074 -58 udpdjrr 113;
#X text 4040 1788 random-entity;
#X connect 0 0 1 0;
#X connect 1 0 57 0;
#X connect 1 1 69 0;
#X connect 3 0 66 0;
#X connect 3 1 58 0;
#X connect 3 2 59 0;
#X connect 3 3 60 0;
#X connect 15 0 14 0;
#X connect 16 0 15 0;
#X connect 17 0 16 0;
#X connect 19 0 18 0;
#X connect 20 0 19 0;
#X connect 21 0 20 0;
#X connect 32 0 21 0;
#X connect 33 0 17 0;
#X connect 34 0 13 0;
#X connect 36 0 46 0;
#X connect 36 0 101 0;
#X connect 37 0 40 0;
#X connect 38 0 37 0;
#X connect 39 0 35 0;
#X connect 39 0 37 0;
#X connect 39 0 49 0;
#X connect 41 0 42 0;
#X connect 42 0 43 0;
#X connect 42 0 44 0;
#X connect 42 0 47 0;
#X connect 46 0 42 0;
#X connect 47 0 45 0;
#X connect 48 0 47 1;
#X connect 49 0 51 0;
#X connect 50 0 49 1;
#X connect 53 0 98 0;
#X connect 54 0 97 0;
#X connect 55 0 90 1;
#X connect 56 0 90 1;
#X connect 63 0 88 0;
#X connect 63 0 87 0;
#X connect 64 0 91 0;
#X connect 64 0 92 0;
#X connect 67 0 61 0;
#X connect 68 0 62 0;
#X connect 84 0 103 0;
#X connect 85 0 103 0;
#X connect 86 0 37 0;
#X connect 87 0 89 0;
#X connect 88 0 90 3;
#X connect 89 0 90 4;
#X connect 90 0 65 0;
#X connect 91 0 93 0;
#X connect 92 0 90 5;
#X connect 93 0 90 6;
#X connect 94 0 95 0;
#X connect 96 0 99 0;
#X connect 97 0 90 0;
#X connect 97 1 55 0;
#X connect 98 0 90 0;
#X connect 98 1 56 0;
#X connect 99 0 94 0;
#X connect 100 0 37 0;
#X connect 101 0 102 0;
#X connect 102 0 86 0;
#X connect 102 1 38 0;
#X connect 103 0 3 4;
#X connect 103 0 3 7;
#X connect 103 0 3 1;
#X connect 104 0 105 0;
#X connect 105 0 100 0;
#X connect 105 1 38 0;
