#N canvas 0 27 1920 984 10;
#X declare -path f2b2f;
#X obj 3689 2321 vsl 15 1280 0 127 0 0 empty empty empty 0 -9 0 10 #fcfcfc #000000 #000000 0 1;
#X obj 3708 2303 hsl 1280 15 0 127 0 0 empty empty empty -2 -8 0 10 #fcfcfc #000000 #000000 0 1;
#X obj 11 31 bng 120 250 50 0 empty empty STOP 0 61 0 50 #ff0400 #00faff #000000;
#X obj 11 433 md;
#X obj 0 -2 declare -path f2b2f;
#X obj 169 434 mtva;
#X obj 851 1148 sj 1;
#X obj 1272 1148 sj 7;
#X obj 430 486 sj 6;
#X obj 1693 486 sj 12;
#X text 4851 3546 random-entity;
#X obj 231 1148 dj 2;
#X obj 231 817 dj 4;
#X obj 1693 1148 dj 8;
#X obj 965 817 dj 13;
#X obj 1265 700 bng 18 250 50 0 empty empty empty 0 -9 0 10 #fcfcfc #000000 #000000;
#X obj 1349 685 bng 18 250 50 0 empty empty empty 0 -9 0 10 #fcfcfc #000000 #000000;
#X obj 1321 703 bng 18 250 50 0 empty empty empty 0 -9 0 10 #fcfcfc #000000 #000000;
#X obj 1293 721 bng 18 250 50 0 empty empty empty 0 -9 0 10 #fcfcfc #000000 #000000;
#X obj 1293 739 bng 18 250 50 0 empty empty empty 0 -9 0 10 #fcfcfc #000000 #000000;
#X obj 1180 685 bng 18 250 50 0 empty empty empty 0 -9 0 10 #fcfcfc #000000 #000000;
#X obj 1208 703 bng 18 250 50 0 empty empty empty 0 -9 0 10 #fcfcfc #000000 #000000;
#X obj 1236 721 bng 18 250 50 0 empty empty empty 0 -9 0 10 #fcfcfc #000000 #000000;
#X obj 1236 739 bng 18 250 50 0 empty empty empty 0 -9 0 10 #fcfcfc #000000 #000000;
#X text 1312 739 sj r_shoulder_z(7);
#X text 1312 721 dj r_shoulder_xy(8 \, 9);
#X text 1340 703 dj l_elbow(10 \, 11);
#X text 1368 685 sj l_wrist(12);
#X text 1124 739 sj l_shoulder_z(1);
#X text 1100 721 dj l_shoulder_xy(2 \, 3);
#X text 1108 703 dj l_elbow(4 \, 5);
#X text 1098 685 sj l_wrist(6);
#X text 1226 682 dj neck(13 \, 14);
#X text 1237 778 pi3hat buses;
#X msg 1248 762 1, f 1;
#X msg 1268 762 2, f 1;
#X msg 1288 762 3, f 1;
#X obj 27 344 bng 15 250 50 0 empty empty empty 17 7 0 10 #fcfcfc #000000 #000000;
#X obj 132 258 loadbang;
#X obj 19 371 netsend -u -b;
#X msg 190 294 disconnect;
#X obj 27 323 r cmdbytes;
#X obj 19 392 tgl 20 0 empty empty empty 0 -10 0 12 #fcfcfc #000000 #000000 0 1;
#X msg 347 294 listen 0;
#X obj 272 371 netreceive -u -b;
#X obj 272 392 s rplbytes;
#X obj 2164 28 udprr 1;
#X obj 2297 28 udprr 2;
#X obj 2430 28 udprr 3;
#X obj 2563 28 udprr 4;
#X obj 2696 28 udprr 5;
#X obj 2829 28 udprr 6;
#X obj 2164 324 udprr 7;
#X obj 2297 324 udprr 8;
#X obj 2430 324 udprr 9;
#X obj 2563 324 udprr 10;
#X obj 2696 324 udprr 11;
#X obj 2829 324 udprr 12;
#X obj 2430 620 udprr 13;
#X obj 2563 620 udprr 14;
#X obj 336 392 bng 18 250 50 0 empty empty empty 0 -9 0 10 #fcfcfc #000000 #000000;
#X obj 374 391 print rplbytes;
#X msg 272 294 listen 5555;
#X obj 374 371 spigot;
#X obj 396 351 tgl 18 0 empty empty empty 0 -9 0 10 #fcfcfc #000000 #000000 0 1;
#X obj 103 371 spigot;
#X obj 125 351 tgl 18 0 empty empty empty 0 -9 0 10 #fcfcfc #000000 #000000 0 1;
#X obj 103 391 print cmdbytes;
#X obj 1693 817 dj 10;
#X obj 251 31 bng 120 250 50 0 empty empty SAVE 0 61 0 50 #9c00ff #f354f9 #faff00;
#X obj 131 31 bng 120 250 50 0 empty empty LOAD 0 61 0 50 #ff8300 #68ff78 #0400ff;
#X obj 139 188 1;
#X obj 161 188 2;
#X obj 11 704 s all_stop;
#X obj 242 704 s all_maxtrq;
#X obj 315 722 s all_maxvel;
#X obj 388 704 s all_maxacc;
#X obj 69 740 s all_outpos0;
#X obj 119 704 s all_outvel0;
#X obj 148 151 idx;
#X obj 268 151 idx;
#X obj 131 233 s cmdbytes;
#X obj 169 722 s all_maxtva0;
#X obj 69 437 bng 50 250 50 0 empty empty 0 13 26 0 40 #faff00 #ff0400 #000000;
#X obj 119 437 bng 50 250 50 0 empty empty 0 13 26 0 40 #faff00 #ff0400 #000000;
#X obj 62 722 s all_mode;
#X obj 609 31 plotter 1;
#X obj 609 241 plotter 7;
#X obj 831 31 plotter 2;
#X obj 831 241 plotter 8;
#X obj 1053 31 plotter 3;
#X obj 1275 31 plotter 4;
#X obj 1053 241 plotter 9;
#X obj 1275 241 plotter 10;
#X obj 1497 31 plotter 5;
#X obj 1719 31 plotter 6;
#X obj 1497 241 plotter 11;
#X obj 1719 241 plotter 12;
#X obj 1053 451 plotter 13;
#X obj 1275 451 plotter 14;
#X obj 338 440 loadbang;
#X obj 368 461 32;
#X obj 320 440 bng 18 250 50 0 empty empty empty 0 -9 0 10 #fcfcfc #000000 #000000;
#X msg 19 294 connect 192.168.0.103 8888;
#X obj 248 211 >> 8;
#X obj 276 211 & 255;
#X obj 248 233 & 255;
#X obj 131 210 pack 0 f 0 f f f f;
#X obj 313 211 >> 8;
#X obj 341 211 & 255;
#X obj 313 233 & 255;
#X floatatom 124 532 7 0 0 0 - - - 0;
#X obj 124 758 s all_outvel;
#X obj 124 490 loadbang;
#X obj 124 511 0.125;
#X connect 2 0 3 0;
#X connect 3 0 73 0;
#X connect 3 1 85 0;
#X connect 5 0 82 0;
#X connect 5 1 74 0;
#X connect 5 2 75 0;
#X connect 5 3 76 0;
#X connect 17 0 16 0;
#X connect 18 0 17 0;
#X connect 19 0 18 0;
#X connect 21 0 20 0;
#X connect 22 0 21 0;
#X connect 23 0 22 0;
#X connect 34 0 23 0;
#X connect 35 0 19 0;
#X connect 36 0 15 0;
#X connect 38 0 103 0;
#X connect 38 0 62 0;
#X connect 39 0 42 0;
#X connect 40 0 39 0;
#X connect 41 0 37 0;
#X connect 41 0 39 0;
#X connect 41 0 65 0;
#X connect 43 0 44 0;
#X connect 44 0 45 0;
#X connect 44 0 60 0;
#X connect 44 0 63 0;
#X connect 62 0 44 0;
#X connect 63 0 61 0;
#X connect 64 0 63 1;
#X connect 65 0 67 0;
#X connect 66 0 65 1;
#X connect 69 0 72 0;
#X connect 69 0 107 0;
#X connect 70 0 71 0;
#X connect 70 0 107 0;
#X connect 71 0 107 1;
#X connect 72 0 107 1;
#X connect 79 0 105 0;
#X connect 79 0 104 0;
#X connect 80 0 108 0;
#X connect 80 0 109 0;
#X connect 83 0 77 0;
#X connect 84 0 78 0;
#X connect 100 0 101 0;
#X connect 101 0 5 1;
#X connect 101 0 5 4;
#X connect 101 0 5 7;
#X connect 102 0 101 0;
#X connect 103 0 39 0;
#X connect 104 0 106 0;
#X connect 105 0 107 3;
#X connect 106 0 107 4;
#X connect 107 0 81 0;
#X connect 108 0 110 0;
#X connect 109 0 107 5;
#X connect 110 0 107 6;
#X connect 111 0 112 0;
#X connect 113 0 114 0;
#X connect 114 0 111 0;
