#N canvas 0 0 2560 1011 12;
#X obj 6 116 hsl 215 20 0 64 0 1 empty empty cmd.max_trq -2 -8 0 12 #c6ffc7 #000000 #000000 0 1;
#X floatatom 85 97 8 0 64 0 - - - 12;
#X floatatom 3 291 7 0 0 2 cmd.max_[trq|vel|acc] - - 16;
#X floatatom 77 291 7 0 0 2 - - - 16;
#X floatatom 151 291 7 0 0 0 - - - 16;
#X obj 57 335 outlet;
#X obj 111 335 outlet;
#X obj 165 335 outlet;
#X obj 51 14 inlet;
#X obj 90 14 inlet;
#X obj 227 50 loadbang;
#X obj 3 53 bng 50 250 50 0 empty empty 0 13 26 0 40 #faff00 #ff0400 #000000;
#X msg 227 73 0, f 1;
#X obj 3 14 inlet;
#X obj 3 335 outlet;
#X obj 6 138 hsl 215 8 0 64 0 1 empty empty empty -2 17 0 12 #bbbbbb #000000 #000000 6600 1;
#X floatatom 149 154 7 0 64 0 - - - 8;
#X obj 6 184 hsl 215 20 0 64 0 1 empty empty cmd.max_vel -2 -8 0 12 #c6ffc7 #000000 #000000 0 1;
#X floatatom 85 165 8 0 64 0 - - - 12;
#X obj 6 206 hsl 215 10 0 64 0 1 empty empty empty -2 17 0 12 #bbbbbb #000000 #000000 9000 1;
#X floatatom 149 226 7 0 64 0 - - - 8;
#X obj 6 252 hsl 215 20 0 64 0 1 empty empty cmd.max_acc -2 -8 0 12 #c6ffc7 #000000 #000000 0 1;
#X floatatom 85 233 8 0 64 0 - - - 12;
#X obj 177 14 inlet;
#X obj 216 14 inlet;
#X obj 305 14 inlet;
#X obj 6 146 hsl 215 8 0 64 0 1 empty empty rpl.trq -2 17 0 12 #bbbbbb #000000 #000000 6600 1;
#X obj 129 14 inlet;
#X floatatom 186 154 7 0 64 0 - - - 8;
#X obj 6 216 hsl 215 10 0 64 0 1 empty empty rpl.vel -2 17 0 12 #bbbbbb #000000 #000000 9028 1;
#X floatatom 186 226 7 0 64 0 - - - 8;
#X obj 255 14 inlet;
#X connect 0 0 2 0;
#X connect 0 0 5 0;
#X connect 1 0 0 0;
#X connect 8 0 1 0;
#X connect 9 0 15 0;
#X connect 10 0 12 0;
#X connect 11 0 12 0;
#X connect 11 0 14 0;
#X connect 12 0 0 0;
#X connect 12 0 17 0;
#X connect 12 0 21 0;
#X connect 13 0 11 0;
#X connect 15 0 16 0;
#X connect 17 0 3 0;
#X connect 17 0 6 0;
#X connect 18 0 17 0;
#X connect 19 0 20 0;
#X connect 21 0 4 0;
#X connect 21 0 7 0;
#X connect 22 0 21 0;
#X connect 23 0 18 0;
#X connect 24 0 19 0;
#X connect 25 0 22 0;
#X connect 26 0 28 0;
#X connect 27 0 26 0;
#X connect 29 0 30 0;
#X connect 31 0 29 0;
#X coords 0 -1 1 1 226 267 2 0 50;
