#N canvas 0 1107 1920 984 12;
#X declare -path queuestream;
#X obj 2 2 declare -path queuestream;
#X obj 493 49 unpack f f f f f f f f;
#X obj 744 189 queuestream 500;
#X obj 858 56 \$0;
#X obj 918 33 bng 20 250 50 0 empty empty empty 0 -10 0 12 #fcfcfc #000000 #000000;
#X obj 493 26 route \$1;
#X obj 858 33 loadbang;
#X msg 897 118 \; \$1-array_mtrtmp xlabel 19 0 500;
#N canvas 225 146 450 250 (subpatch) 0;
#X array \$0-array_mtrtmp 500 float 0;
#X coords 0 70 499 20 200 150 2 0 0;
#X restore 104 144 graph;
#X obj 744 212 array set \$0-array_mtrtmp;
#X obj 218 113 nbx 3 18 0 64 0 0 empty empty empty 0 -10 0 12 #fcfcfc #000000 #000000 0 256;
#X text 102 113 encoder_validity;
#X obj 262 31 select 15;
#X symbolatom 262 108 5 0 0 0 - - - 16;
#X msg 262 54 OK, f 2;
#X obj 262 77 pack s;
#X symbolatom 104 271 7 0 0 0 - - - 16;
#X obj 506 311 pack s;
#X obj 506 170 select 1;
#X obj 506 147 expr $f1 < 50;
#X obj 559 262 select 1;
#X msg 612 285 FAULT;
#X obj 559 239 expr $f1 < 70;
#X msg 559 285 DERATE;
#X msg 506 193 OK, f 2;
#X msg 322 54 FAULT;
#X obj 559 216 f;
#X obj 506 124 t f f;
#X obj 559 193 bng 20 250 50 0 empty empty empty 0 -10 0 12 #fcfcfc #000000 #000000;
#X obj 493 3 r srpl;
#X msg 897 80 \; \$1-array_mtrtmp ylabel 505 20 30 40 50 60 70;
#X connect 1 2 10 0;
#X connect 1 6 2 0;
#X connect 1 6 27 0;
#X connect 2 0 9 0;
#X connect 3 0 30 0;
#X connect 3 0 7 0;
#X connect 4 0 3 0;
#X connect 5 0 1 0;
#X connect 6 0 3 0;
#X connect 10 0 12 0;
#X connect 12 0 14 0;
#X connect 12 1 25 0;
#X connect 14 0 15 0;
#X connect 15 0 13 0;
#X connect 17 0 16 0;
#X connect 18 0 24 0;
#X connect 18 1 28 0;
#X connect 19 0 18 0;
#X connect 20 0 23 0;
#X connect 20 1 21 0;
#X connect 21 0 17 0;
#X connect 22 0 20 0;
#X connect 23 0 17 0;
#X connect 24 0 17 0;
#X connect 25 0 15 0;
#X connect 26 0 22 0;
#X connect 27 0 19 0;
#X connect 27 1 26 1;
#X connect 28 0 26 0;
#X connect 29 0 5 0;
#X coords 0 -1 1 1 222 210 1 100 100;
