#N canvas 950 19 960 984 12;
#X declare -path timseq;
#X obj 95 37 declare -path timseq;
#X obj 411 204 tgl 50 0 empty empty Running 0 -10 0 12 #fcfcfc #000000 #000000 0 1;
#X obj 372 428 timseq;
#X obj 311 204 bng 50 250 50 0 empty empty Start 0 -10 0 12 #00ff04 #0400ff #000000;
#X obj 361 204 bng 50 250 50 0 empty empty Stop 0 -10 0 12 #ff0400 #faff00 #000000;
#X obj 426 428 list;
#X obj 372 458 timseq;
#X obj 426 458 list;
#X obj 372 488 timseq;
#X obj 426 488 list;
#X obj 633 203 bng 50 250 50 0 empty empty Save 0 -10 0 12 #fcfcfc #000000 #000000;
#X obj 573 203 loadbang;
#X msg 500 428 1000 1 2000 2 3000 3 4000 4;
#X msg 500 458 5000 0.5 6000 0.25 7000 0.125 8000 2;
#X msg 500 488 9000 2 10000 4 11000 8 12000 0;
#X obj 461 204 bng 50 250 50 0 empty empty Finish 0 -10 0 12 #fcfcfc #000000 #000000;
#X obj 311 127 inlet;
#X obj 361 127 inlet;
#X obj 231 311 outlet;
#X obj 411 311 outlet;
#X obj 573 226 0;
#X connect 1 0 19 0;
#X connect 2 0 18 0;
#X connect 2 1 6 1;
#X connect 2 2 6 0;
#X connect 3 0 2 0;
#X connect 3 0 1 0;
#X connect 4 0 2 1;
#X connect 4 0 1 0;
#X connect 5 0 2 2;
#X connect 6 0 18 0;
#X connect 6 1 8 1;
#X connect 6 2 8 0;
#X connect 7 0 6 2;
#X connect 8 0 18 0;
#X connect 8 2 15 0;
#X connect 9 0 8 2;
#X connect 10 0 12 0;
#X connect 10 0 13 0;
#X connect 10 0 14 0;
#X connect 11 0 10 0;
#X connect 11 0 20 0;
#X connect 12 0 5 0;
#X connect 13 0 7 0;
#X connect 14 0 9 0;
#X connect 15 0 1 0;
#X connect 16 0 3 0;
#X connect 17 0 4 0;
#X connect 20 0 1 0;
