#N canvas -10 -8 1280 1011 12;
#X obj 50 119 cnv 20 419 311 empty empty SingleAxisJoint 45 -9 0 16 #ebebff #000000 0;
#X floatatom 52 143 4 0 0 2 SUID - - 24;
#X obj 52 176 md;
#X obj 110 119 so;
#X obj 242 482 mtva;
#X obj 276 -34 loadbang;
#X obj 389 808 f2b;
#X obj 311 808 f2b;
#X obj 233 808 f2b;
#X obj 467 808 f2b;
#X obj 155 808 f2b;
#X obj 103 867 s cmdbytes;
#X obj 103 841 pack \$1 0 0 0 0 0 0 0 0 0 0 0 0 0 0 0 0 0 0 0 0 0 0, f 62;
#X obj 52 8 r all_stop;
#X obj 242 439 r all_maxtva0;
#X obj 273 459 r all_maxtrq;
#X obj 367 459 r all_maxvel;
#X obj 110 48 r all_outpos0;
#X obj 141 8 r all_outvel0;
#X obj 103 761 t b f;
#X obj 159 761 t b f;
#X obj 198 761 t b f;
#X obj 315 761 t b f;
#X obj 354 761 t b f;
#X obj 393 761 t b f;
#X obj 276 45 unpack f f f f f f f f;
#X obj 461 459 r all_maxacc;
#X floatatom 307 137 5 0 0 2 fault - - 0;
#X obj 371 -9 \$1, f 2;
#X obj 103 28 r all_mode;
#X obj 172 68 r all_outvel;
#X obj 427 68 abs;
#X obj 339 -34 r srpl;
#X obj 339 18 route;
#X obj 739 10 select 15;
#X msg 739 33 OK, f 2;
#X obj 739 56 pack s;
#X msg 799 33 FAULT;
#X obj 685 -35 pack s;
#X msg 798 -60 FAULT;
#X obj 685 -107 select 0;
#X msg 685 -84 STOP;
#X obj 738 -83 select 10;
#X msg 738 -60 PM, f 2;
#X obj 1087 70 \$0;
#X obj 1147 47 bng 20 250 50 0 empty empty empty 0 -10 0 12 #fcfcfc #000000 #000000;
#X obj 1087 47 loadbang;
#X obj 783 137 queuestream 125;
#X obj 783 287 queuestream 125;
#X obj 783 237 queuestream 125;
#X obj 783 214 f;
#X obj 783 191 tgl 20 0 empty empty empty 0 -10 0 12 #fcfcfc #000000 #000000 0 1;
#X obj 803 191 metro 40;
#X obj 493 36 route;
#X obj 525 10 expr \$1 + 100;
#X obj 783 497 queuestream 125;
#X obj 783 397 queuestream 125;
#X obj 783 374 f;
#X obj 783 351 tgl 20 0 empty empty empty 0 -10 0 12 #fcfcfc #000000 #000000 0 1;
#X obj 803 351 metro 40;
#X obj 783 447 queuestream 125;
#X obj 783 567 queuestream 125;
#X obj 671 351 expr $f1 >= $f2;
#X obj 671 373 - 0.5;
#X obj 671 395 * 2;
#X obj 671 441 *;
#X obj 671 418 t b f;
#X obj 783 617 queuestream 125;
#X obj 878 48 pack s;
#X obj 878 -93 select 1;
#X obj 878 -116 expr $f1 < 50;
#X obj 931 -1 select 1;
#X msg 984 22 FAULT;
#X obj 931 -24 expr $f1 < 70;
#X msg 931 22 DERATE;
#X msg 878 -70 OK, f 2;
#X obj 931 -47 f;
#X obj 878 -139 t f f;
#X obj 931 -70 bng 20 250 50 0 empty empty empty 0 -10 0 12 #fcfcfc #000000 #000000;
#X obj 493 -36 r sjrpl;
#X obj 493 68 unpack f f f f;
#N canvas 547 313 450 250 (subpatch) 0;
#X array \$0-arr_mtrtmp 125 float 0;
#X coords 0 70 124 20 227 61 2 0 0;
#X restore 242 185 graph;
#N canvas 0 50 450 250 (subpatch) 0;
#X array \$0-arr_cposout 125 float 0;
#X array \$0-arr_rposout 125 float 0;
#X coords 0 0.5 124 -0.5 227 61 1 0 0;
#X restore 242 246 graph;
#X obj 418 136 tgl 20 0 empty empty fixing 0 -10 0 12 #fcfcfc #000000 #000000 0 1;
#N canvas 50 119 450 250 (subpatch) 0;
#X array \$0-arr_cvelout 125 float 0;
#X array \$0-arr_tvelout 125 float 0;
#X array \$0-arr_rvelout 125 float 0;
#X coords 0 0.5 124 -0.5 227 61 1 0 0;
#X restore 242 307 graph;
#N canvas 50 119 450 250 (subpatch) 0;
#X array \$0-arr_tvelrot 125 float 0;
#X array \$0-arr_rvelrot 125 float 0;
#X coords 0 5 124 -5 227 61 2 0 0;
#X restore 242 368 graph;
#X symbolatom 397 162 7 0 0 0 - - - 16;
#X floatatom 381 137 5 0 0 2 mtmp - - 0;
#X symbolatom 344 137 5 0 0 2 encv - - 12;
#X symbolatom 270 137 5 0 0 2 mode - - 0;
#X obj 783 160 array set \$0-arr_mtrtmp;
#X obj 783 260 array set \$0-arr_cposout;
#X obj 783 310 array set \$0-arr_rposout;
#X obj 783 420 array set \$0-arr_cvelout;
#X obj 783 470 array set \$0-arr_tvelout;
#X obj 783 520 array set \$0-arr_rvelout;
#X obj 783 590 array set \$0-arr_tvelrot;
#X obj 783 640 array set \$0-arr_rvelrot;
#X msg 1106 202 \; \$1-arr_mtrtmp color 900;
#X msg 1106 282 \; \$1-arr_cposout color 750;
#X msg 1106 320 \; \$1-arr_rposout color 900;
#X msg 1106 472 \; \$1-arr_cvelout color 750;
#X msg 1106 510 \; \$1-arr_tvelout color 500;
#X msg 1106 548 \; \$1-arr_rvelout color 900;
#X msg 1106 652 \; \$1-arr_tvelrot color 750;
#X msg 1106 690 \; \$1-arr_rvelrot color 900;
#X connect 2 1 19 0;
#X connect 3 0 20 0;
#X connect 3 0 50 1;
#X connect 3 0 62 0;
#X connect 3 1 21 0;
#X connect 3 1 65 0;
#X connect 4 1 22 0;
#X connect 4 2 23 0;
#X connect 4 3 24 0;
#X connect 5 0 28 0;
#X connect 5 0 54 0;
#X connect 6 0 12 15;
#X connect 6 1 12 16;
#X connect 6 2 12 17;
#X connect 6 3 12 18;
#X connect 7 0 12 11;
#X connect 7 1 12 12;
#X connect 7 2 12 13;
#X connect 7 3 12 14;
#X connect 8 0 12 7;
#X connect 8 1 12 8;
#X connect 8 2 12 9;
#X connect 8 3 12 10;
#X connect 9 0 12 19;
#X connect 9 1 12 20;
#X connect 9 2 12 21;
#X connect 9 3 12 22;
#X connect 10 0 12 3;
#X connect 10 1 12 4;
#X connect 10 2 12 5;
#X connect 10 3 12 6;
#X connect 12 0 11 0;
#X connect 13 0 2 0;
#X connect 14 0 4 0;
#X connect 15 0 4 1;
#X connect 16 0 4 4;
#X connect 17 0 3 0;
#X connect 18 0 3 1;
#X connect 19 0 12 0;
#X connect 19 1 12 2;
#X connect 20 0 12 0;
#X connect 20 1 10 0;
#X connect 21 0 12 0;
#X connect 21 1 8 0;
#X connect 22 0 12 0;
#X connect 22 1 7 0;
#X connect 23 0 12 0;
#X connect 23 1 6 0;
#X connect 24 0 12 0;
#X connect 24 1 9 0;
#X connect 25 0 40 0;
#X connect 25 1 27 0;
#X connect 25 2 34 0;
#X connect 25 3 4 5;
#X connect 25 3 4 6;
#X connect 25 3 67 0;
#X connect 25 4 4 2;
#X connect 25 4 4 3;
#X connect 25 5 3 3;
#X connect 25 5 48 0;
#X connect 25 5 62 1;
#X connect 25 6 77 0;
#X connect 25 6 87 0;
#X connect 25 6 47 0;
#X connect 25 7 31 0;
#X connect 25 7 55 0;
#X connect 26 0 4 7;
#X connect 28 0 1 0;
#X connect 28 0 33 1;
#X connect 29 0 2 1;
#X connect 30 0 3 2;
#X connect 31 0 3 4;
#X connect 32 0 33 0;
#X connect 33 0 25 0;
#X connect 34 0 35 0;
#X connect 34 1 37 0;
#X connect 35 0 36 0;
#X connect 36 0 88 0;
#X connect 37 0 36 0;
#X connect 38 0 89 0;
#X connect 39 0 38 0;
#X connect 40 0 41 0;
#X connect 40 1 42 0;
#X connect 41 0 38 0;
#X connect 42 0 43 0;
#X connect 42 1 39 0;
#X connect 43 0 38 0;
#X connect 44 0 98 0;
#X connect 44 0 99 0;
#X connect 44 0 100 0;
#X connect 44 0 101 0;
#X connect 44 0 102 0;
#X connect 44 0 103 0;
#X connect 44 0 104 0;
#X connect 44 0 105 0;
#X connect 45 0 44 0;
#X connect 46 0 51 0;
#X connect 46 0 58 0;
#X connect 46 0 44 0;
#X connect 47 0 90 0;
#X connect 48 0 92 0;
#X connect 49 0 91 0;
#X connect 50 0 49 0;
#X connect 51 0 52 0;
#X connect 52 0 50 0;
#X connect 53 0 80 0;
#X connect 54 0 53 1;
#X connect 55 0 95 0;
#X connect 56 0 93 0;
#X connect 57 0 56 0;
#X connect 58 0 59 0;
#X connect 59 0 57 0;
#X connect 60 0 94 0;
#X connect 61 0 96 0;
#X connect 62 0 63 0;
#X connect 63 0 64 0;
#X connect 64 0 66 0;
#X connect 65 0 57 1;
#X connect 66 0 65 0;
#X connect 66 1 65 1;
#X connect 67 0 97 0;
#X connect 68 0 86 0;
#X connect 69 0 75 0;
#X connect 69 1 78 0;
#X connect 70 0 69 0;
#X connect 71 0 74 0;
#X connect 71 1 72 0;
#X connect 72 0 68 0;
#X connect 73 0 71 0;
#X connect 74 0 68 0;
#X connect 75 0 68 0;
#X connect 76 0 73 0;
#X connect 77 0 70 0;
#X connect 77 1 76 1;
#X connect 78 0 76 0;
#X connect 79 0 53 0;
#X connect 80 0 83 0;
#X connect 80 2 60 0;
#X connect 80 3 61 0;
#X coords 0 -1 1 1 421 331 1 50 100;
