#N canvas 0 27 1920 984 12;
#X declare -path f2b2f;
#X declare -path queuestream;
#X obj 51 119 cnv 20 419 311 empty empty SingleAxisJoint 45 -9 0 16 #ebebff #000000 0;
#X floatatom 52 143 4 0 0 2 SUID - - 24;
#X obj 52 176 md;
#X obj 110 119 so;
#X obj 242 482 mtva;
#X obj 276 -34 loadbang;
#X obj 389 988 f2b;
#X obj 311 988 f2b;
#X obj 233 988 f2b;
#X obj 467 988 f2b;
#X obj 155 988 f2b;
#X obj 103 1047 s cmdbytes;
#X obj 103 1021 pack \$1 0 0 0 0 0 0 0 0 0 0 0 0 0 0 0 0 0 0 0 0 0 0, f 62;
#X obj 52 8 r all_stop;
#X obj 242 439 r all_maxtva0;
#X obj 273 459 r all_maxtrq;
#X obj 367 459 r all_maxvel;
#X obj 110 48 r all_outpos0;
#X obj 135 8 r all_outvel0;
#X obj 103 884 t b f;
#X obj 169 884 t b f;
#X obj 208 884 t b f;
#X obj 323 884 t b f;
#X obj 362 884 t b f;
#X obj 401 884 t b f;
#X obj 276 45 unpack f f f f f f f f;
#X obj 461 459 r all_maxacc;
#X floatatom 307 137 5 0 0 2 fault - - 0;
#X obj 371 -9 \$1, f 2;
#X obj 103 28 r all_mode;
#X obj 185 68 r all_outvel;
#X obj 427 68 abs;
#X obj 339 -34 r srpl;
#X obj 339 18 route;
#X obj 392 -181 select 15;
#X msg 392 -158 OK, f 2;
#X obj 392 -135 pack s;
#X msg 452 -158 FAULT;
#X obj 338 -226 pack s;
#X msg 451 -251 FAULT;
#X obj 338 -298 select 0;
#X msg 338 -275 STOP;
#X obj 391 -274 select 10;
#X msg 391 -251 PM, f 2;
#X obj 1053 86 \$0;
#X obj 1113 63 bng 20 250 50 0 empty empty empty 0 -10 0 12 #fcfcfc #000000 #000000;
#X obj 1053 63 loadbang;
#X obj 783 234 f;
#X obj 783 211 tgl 20 0 empty empty empty 0 -10 0 12 #fcfcfc #000000 #000000 0 1;
#X obj 493 36 route;
#X obj 783 414 f;
#X obj 783 391 tgl 20 0 empty empty empty 0 -10 0 12 #fcfcfc #000000 #000000 0 1;
#X obj 671 391 expr $f1 >= $f2;
#X obj 671 413 - 0.5;
#X obj 671 435 * 2;
#X obj 671 481 *, f 2;
#X obj 671 458 t b f;
#X obj 531 -143 pack s;
#X obj 531 -284 select 1;
#X obj 531 -307 expr $f1 < 50;
#X obj 584 -192 select 1;
#X msg 637 -169 FAULT;
#X obj 584 -215 expr $f1 < 70;
#X msg 584 -169 DERATE;
#X msg 531 -261 OK, f 2;
#X obj 584 -238 f;
#X obj 531 -330 t f f;
#X obj 584 -261 bng 20 250 50 0 empty empty empty 0 -10 0 12 #fcfcfc #000000 #000000;
#X obj 493 -16 r sjrpl;
#N canvas 547 313 450 250 (subpatch) 0;
#X array \$0-arr_mtrtmp 50 float 0;
#X coords 0 70 49 20 227 61 2 0 0;
#X restore 242 185 graph;
#N canvas 0 50 450 250 (subpatch) 0;
#X array \$0-arr_cposout 50 float 0;
#X array \$0-arr_rposout 50 float 0;
#X coords 0 0.5 49 -0.5 227 61 1 0 0;
#X restore 242 246 graph;
#X obj 418 136 tgl 20 0 empty empty fixing 0 -10 0 12 #fcfcfc #000000 #000000 0 1;
#N canvas 50 119 450 250 (subpatch) 0;
#X array \$0-arr_cvelout 50 float 0;
#X array \$0-arr_rvelout 50 float 0;
#X coords 0 0.5 49 -0.5 227 61 1 0 0;
#X restore 242 307 graph;
#N canvas 50 119 450 250 (subpatch) 0;
#X array \$0-arr_tvelrot 50 float 0;
#X array \$0-arr_rvelrot 50 float 0;
#X coords 0 5 49 -5 227 61 2 0 0;
#X restore 242 368 graph;
#X symbolatom 397 162 7 0 0 0 - - - 16;
#X floatatom 381 137 5 0 0 2 mtmp - - 0;
#X symbolatom 344 137 5 0 0 2 encv - - 12;
#X symbolatom 270 137 5 0 0 2 mode - - 0;
#X obj 783 160 array set \$0-arr_mtrtmp;
#X obj 783 280 array set \$0-arr_cposout;
#X obj 783 330 array set \$0-arr_rposout;
#X obj 783 460 array set \$0-arr_cvelout;
#X obj 783 510 array set \$0-arr_rvelout;
#X obj 783 590 array set \$0-arr_tvelrot;
#X obj 783 640 array set \$0-arr_rvelrot;
#X msg 1106 142 \; \$1-arr_mtrtmp color 900;
#X msg 1106 252 \; \$1-arr_cposout color 750;
#X msg 1106 290 \; \$1-arr_rposout color 900;
#X msg 1106 422 \; \$1-arr_cvelout color 750;
#X msg 1106 460 \; \$1-arr_rvelout color 900;
#X msg 1106 585 \; \$1-arr_tvelrot color 750;
#X msg 1106 623 \; \$1-arr_rvelrot color 900;
#X obj 451 411 tgl 20 0 empty empty empty 0 -10 0 12 #fcfcfc #000000 #000000 0 1;
#X obj 560 91 spigot;
#X obj 493 68 unpack f f;
#X obj 783 137 queuestream 50;
#X obj 783 257 queuestream 50;
#X obj 783 437 queuestream 50;
#X obj 783 307 queuestream 50;
#X obj 783 487 queuestream 50;
#X obj 783 567 queuestream 50;
#X obj 783 617 queuestream 50;
#X obj 803 211 metro 100;
#X obj 803 391 metro 100;
#X obj 653 36 route;
#X obj 653 -16 r sjcrrpl;
#X obj 653 68 unpack f f f f f;
#X obj 145 836 spigot;
#X obj 153 777 t b f b;
#X obj 199 800 0, f 2;
#X obj 153 800 1, f 2;
#X obj 215 836 spigot;
#X obj 223 777 t b f b;
#X obj 269 800 0, f 2;
#X obj 223 800 1, f 2;
#X obj 305 836 spigot;
#X obj 313 777 t b f b;
#X obj 359 800 0, f 2;
#X obj 313 800 1, f 2;
#X obj 375 836 spigot;
#X obj 383 777 t b f b;
#X obj 429 800 0, f 2;
#X obj 383 800 1, f 2;
#X obj 445 836 spigot;
#X obj 453 777 t b f b;
#X obj 499 800 0, f 2;
#X obj 453 800 1, f 2;
#X obj 161 723 loadbang;
#X obj 53 -50 declare -path f2b2f;
#X obj 53 -30 declare -path queuestream;
#X connect 2 1 19 0;
#X connect 3 0 47 1;
#X connect 3 0 52 0;
#X connect 3 0 20 0;
#X connect 3 1 55 0;
#X connect 3 1 21 0;
#X connect 4 1 22 0;
#X connect 4 2 23 0;
#X connect 4 3 24 0;
#X connect 5 0 28 0;
#X connect 6 0 12 15;
#X connect 6 1 12 16;
#X connect 6 2 12 17;
#X connect 6 3 12 18;
#X connect 7 0 12 11;
#X connect 7 1 12 12;
#X connect 7 2 12 13;
#X connect 7 3 12 14;
#X connect 8 0 12 7;
#X connect 8 1 12 8;
#X connect 8 2 12 9;
#X connect 8 3 12 10;
#X connect 9 0 12 19;
#X connect 9 1 12 20;
#X connect 9 2 12 21;
#X connect 9 3 12 22;
#X connect 10 0 12 3;
#X connect 10 1 12 4;
#X connect 10 2 12 5;
#X connect 10 3 12 6;
#X connect 12 0 11 0;
#X connect 13 0 2 0;
#X connect 14 0 4 0;
#X connect 15 0 4 1;
#X connect 16 0 4 4;
#X connect 17 0 3 0;
#X connect 18 0 3 1;
#X connect 19 0 12 0;
#X connect 19 1 12 2;
#X connect 20 0 107 0;
#X connect 20 1 10 0;
#X connect 21 0 111 0;
#X connect 21 1 8 0;
#X connect 22 0 115 0;
#X connect 22 1 7 0;
#X connect 23 0 12 0;
#X connect 23 0 119 0;
#X connect 23 1 6 0;
#X connect 24 0 123 0;
#X connect 24 1 9 0;
#X connect 25 0 40 0;
#X connect 25 1 27 0;
#X connect 25 2 34 0;
#X connect 25 3 4 5;
#X connect 25 3 4 6;
#X connect 25 3 101 0;
#X connect 25 4 4 2;
#X connect 25 4 4 3;
#X connect 25 5 3 4;
#X connect 25 5 52 1;
#X connect 25 5 98 0;
#X connect 25 6 66 0;
#X connect 25 6 75 0;
#X connect 25 6 95 0;
#X connect 25 7 31 0;
#X connect 25 7 99 0;
#X connect 26 0 4 7;
#X connect 28 0 1 0;
#X connect 28 0 33 1;
#X connect 28 0 49 1;
#X connect 28 0 104 1;
#X connect 29 0 2 1;
#X connect 30 0 3 3;
#X connect 31 0 3 5;
#X connect 32 0 33 0;
#X connect 33 0 25 0;
#X connect 34 0 35 0;
#X connect 34 1 37 0;
#X connect 35 0 36 0;
#X connect 36 0 76 0;
#X connect 37 0 36 0;
#X connect 38 0 77 0;
#X connect 39 0 38 0;
#X connect 40 0 41 0;
#X connect 40 1 42 0;
#X connect 41 0 38 0;
#X connect 42 0 43 0;
#X connect 42 1 39 0;
#X connect 43 0 38 0;
#X connect 44 0 85 0;
#X connect 44 0 86 0;
#X connect 44 0 87 0;
#X connect 44 0 88 0;
#X connect 44 0 89 0;
#X connect 44 0 90 0;
#X connect 44 0 91 0;
#X connect 45 0 44 0;
#X connect 46 0 44 0;
#X connect 47 0 96 0;
#X connect 48 0 102 0;
#X connect 49 0 94 0;
#X connect 50 0 97 0;
#X connect 51 0 103 0;
#X connect 52 0 53 0;
#X connect 53 0 54 0;
#X connect 54 0 56 0;
#X connect 55 0 50 1;
#X connect 56 0 55 0;
#X connect 56 1 55 1;
#X connect 57 0 74 0;
#X connect 58 0 64 0;
#X connect 58 1 67 0;
#X connect 59 0 58 0;
#X connect 60 0 63 0;
#X connect 60 1 61 0;
#X connect 61 0 57 0;
#X connect 62 0 60 0;
#X connect 63 0 57 0;
#X connect 64 0 57 0;
#X connect 65 0 62 0;
#X connect 66 0 59 0;
#X connect 66 1 65 1;
#X connect 67 0 65 0;
#X connect 68 0 49 0;
#X connect 92 0 93 1;
#X connect 92 0 48 0;
#X connect 92 0 51 0;
#X connect 93 0 100 0;
#X connect 94 0 71 0;
#X connect 94 1 93 0;
#X connect 95 0 78 0;
#X connect 96 0 79 0;
#X connect 97 0 81 0;
#X connect 98 0 80 0;
#X connect 99 0 82 0;
#X connect 100 0 83 0;
#X connect 101 0 84 0;
#X connect 102 0 47 0;
#X connect 103 0 50 0;
#X connect 104 0 106 0;
#X connect 105 0 104 0;
#X connect 106 0 108 0;
#X connect 106 1 112 0;
#X connect 106 2 116 0;
#X connect 106 3 120 0;
#X connect 106 4 124 0;
#X connect 107 0 12 0;
#X connect 108 0 110 0;
#X connect 108 1 3 2;
#X connect 108 2 109 0;
#X connect 109 0 107 1;
#X connect 110 0 107 1;
#X connect 111 0 12 0;
#X connect 112 0 114 0;
#X connect 112 1 3 3;
#X connect 112 2 113 0;
#X connect 113 0 111 1;
#X connect 114 0 111 1;
#X connect 115 0 12 0;
#X connect 116 0 118 0;
#X connect 116 1 4 1;
#X connect 116 2 117 0;
#X connect 117 0 115 1;
#X connect 118 0 115 1;
#X connect 119 0 12 0;
#X connect 120 0 122 0;
#X connect 120 1 4 4;
#X connect 120 2 121 0;
#X connect 121 0 119 1;
#X connect 122 0 119 1;
#X connect 123 0 12 0;
#X connect 124 0 126 0;
#X connect 124 1 4 7;
#X connect 124 2 125 0;
#X connect 125 0 123 1;
#X connect 126 0 123 1;
#X connect 127 0 110 0;
#X connect 127 0 114 0;
#X connect 127 0 118 0;
#X connect 127 0 122 0;
#X connect 127 0 126 0;
#X coords 0 -1 1 1 421 331 1 50 100;
