#N canvas 1548 42 1280 984 12;
#X obj 51 119 cnv 20 419 311 empty empty SingleAxisJoint 45 -9 0 16 #ebebff #000000 0;
#X floatatom 53 143 4 0 0 2 SUID - - 24;
#X obj 53 176 md;
#X obj 111 119 so;
#X obj 243 162 mtva;
#X obj 477 36 loadbang;
#X obj 390 503 f2b;
#X obj 312 503 f2b;
#X obj 234 503 f2b;
#X obj 468 503 f2b;
#X obj 156 503 f2b;
#X obj 104 562 s cmdbytes;
#X obj 477 411 expr \$1 < 100;
#X obj 424 452 spigot;
#X obj 378 452 spigot;
#X obj 332 452 spigot;
#X obj 216 452 spigot;
#X obj 170 452 spigot;
#X obj 104 452 spigot;
#X obj 104 536 pack \$1 0 0 0 0 0 0 0 0 0 0 0 0 0 0 0 0 0 0 0 0 0 0, f 62;
#X obj 53 8 r all_stop;
#X obj 243 28 r all_maxtva0;
#X obj 274 8 r all_maxtrq;
#X obj 368 8 r all_maxvel;
#X obj 111 48 r all_outpos0;
#X obj 142 8 r all_outvel0;
#X obj 562 8 r rpl;
#X obj 562 31 route \$1;
#X obj 104 475 t b f;
#X obj 170 475 t b f;
#X obj 216 475 t b f;
#X obj 332 475 t b f;
#X obj 378 475 t b f;
#X obj 424 475 t b f;
#X obj 562 54 unpack f f f f f f f f;
#X obj 462 8 r all_maxacc;
#X floatatom 252 136 5 0 0 2 mode - - 0;
#X floatatom 309 136 5 0 0 2 fault - - 0;
#X floatatom 366 136 5 0 0 2 encvld - - 0;
#X floatatom 423 136 5 0 0 2 mtrtmp - - 0;
#X obj 524 155 expr $f1 != 15;
#X obj 477 59 \$1, f 2;
#X obj 104 28 r all_mode;
#X obj 173 68 r all_outvel;
#X connect 2 1 18 0;
#X connect 3 0 17 0;
#X connect 3 1 16 0;
#X connect 4 1 15 0;
#X connect 4 2 14 0;
#X connect 4 3 13 0;
#X connect 5 0 12 0;
#X connect 5 0 41 0;
#X connect 6 0 19 15;
#X connect 6 1 19 16;
#X connect 6 2 19 17;
#X connect 6 3 19 18;
#X connect 7 0 19 11;
#X connect 7 1 19 12;
#X connect 7 2 19 13;
#X connect 7 3 19 14;
#X connect 8 0 19 7;
#X connect 8 1 19 8;
#X connect 8 2 19 9;
#X connect 8 3 19 10;
#X connect 9 0 19 19;
#X connect 9 1 19 20;
#X connect 9 2 19 21;
#X connect 9 3 19 22;
#X connect 10 0 19 3;
#X connect 10 1 19 4;
#X connect 10 2 19 5;
#X connect 10 3 19 6;
#X connect 12 0 13 1;
#X connect 12 0 14 1;
#X connect 12 0 15 1;
#X connect 12 0 16 1;
#X connect 12 0 17 1;
#X connect 12 0 18 1;
#X connect 13 0 33 0;
#X connect 14 0 32 0;
#X connect 15 0 31 0;
#X connect 16 0 30 0;
#X connect 17 0 29 0;
#X connect 18 0 28 0;
#X connect 19 0 11 0;
#X connect 20 0 2 0;
#X connect 21 0 4 0;
#X connect 22 0 4 1;
#X connect 23 0 4 4;
#X connect 24 0 3 0;
#X connect 25 0 3 1;
#X connect 26 0 27 0;
#X connect 27 0 34 0;
#X connect 28 0 19 0;
#X connect 28 1 19 2;
#X connect 29 0 19 0;
#X connect 29 1 10 0;
#X connect 30 0 19 0;
#X connect 30 1 8 0;
#X connect 31 0 19 0;
#X connect 31 1 7 0;
#X connect 32 0 19 0;
#X connect 32 1 6 0;
#X connect 33 0 19 0;
#X connect 33 1 9 0;
#X connect 34 0 36 0;
#X connect 34 1 37 0;
#X connect 34 2 38 0;
#X connect 34 3 4 5;
#X connect 34 3 4 6;
#X connect 34 4 4 2;
#X connect 34 4 4 3;
#X connect 34 5 3 3;
#X connect 34 6 39 0;
#X connect 34 7 3 4;
#X connect 35 0 4 7;
#X connect 38 0 40 0;
#X connect 41 0 1 0;
#X connect 42 0 2 1;
#X connect 43 0 3 2;
#X coords 0 -1 1 1 421 331 1 50 100;
