#N canvas 758 308 827 521 12;
#X obj 64 64 vsl 18 275 -0.5 0.5 0 1 empty empty cmd -1 -8 0 10 #c6ffc7 #000000 #000000 13700 1;
#X floatatom 3 106 8 -0.5 0.5 2 cmd.pos - - 12;
#X floatatom 3 247 8 0 0 2 cmd.pos - - 12;
#X obj 64 370 outlet;
#X obj 3 62 bng 28 250 50 0 empty empty 0 9 15 0 19 #faff00 #ff0400 #000000;
#X obj 159 38 loadbang;
#X obj 85 64 vsl 9 275 -0.5 0.5 0 1 empty empty rpl -3 -8 0 8 #bbbbbb #000000 #000000 13996 1;
#X floatatom 3 278 11 0 0 2 rpl.aux2pos - - 8;
#X obj 99 64 vsl 18 275 0 0.5 0 1 empty empty cmd -1 -8 0 10 #c6ffc7 #000000 #000000 0 1;
#X obj 120 64 vsl 9 275 0 0.5 0 1 empty empty rpl -3 -8 0 8 #bbbbbb #000000 #000000 327 1;
#X obj 99 370 outlet;
#X text 62 339 opos;
#X text 97 339 ovel;
#X floatatom 3 141 8 -0.5 0.5 2 cmd.vel - - 12;
#X floatatom 3 309 8 0 0 2 cmd.vel - - 12;
#X floatatom 3 340 11 0 0 2 rpl.aux2vel - - 8;
#X obj 159 61 0, f 2;
#X obj 179 61 0, f 2;
#X obj 33 62 bng 28 250 50 0 empty empty 0 9 15 0 19 #faff00 #ff0400 #000000;
#X obj 3 12 inlet;
#X obj 33 12 inlet;
#X obj 85 12 inlet;
#X obj 120 12 inlet;
#X connect 0 0 2 0;
#X connect 0 0 3 0;
#X connect 1 0 0 0;
#X connect 4 0 16 0;
#X connect 5 0 16 0;
#X connect 5 0 17 1;
#X connect 6 0 7 0;
#X connect 8 0 10 0;
#X connect 8 0 14 0;
#X connect 9 0 15 0;
#X connect 13 0 8 0;
#X connect 16 0 0 0;
#X connect 17 0 8 0;
#X connect 18 0 17 0;
#X connect 19 0 4 0;
#X connect 20 0 18 0;
#X connect 21 0 6 0;
#X connect 22 0 9 0;
#X coords 0 -1 1 1 132 310 2 0 50;
