#N canvas 950 19 960 984 12;
#X declare -path f2b2f;
#X obj 6 27 r rplbytes;
#X obj 462 192 b2f;
#X floatatom 510 173 4 0 0 0 - - - 0;
#X obj 0 -2 declare -path f2b2f;
#X obj 557 29 loadbang;
#X floatatom 508 150 3 0 0 0 - - - 16;
#X obj 542 172 t b f;
#X text 476 152 suid;
#X obj 557 280 s djrpl;
#X obj 462 216 b2f;
#X text 464 172 fixing;
#X obj 6 96 unpack 0 0 0 0 0 0 0 0 0;
#X obj 557 256 pack 0 f f f;
#X text 402 194 tgt_rotl;
#X text 402 218 tgt_rotr;
#X obj 36 50 expr \$1 + 100;
#X obj 6 73 route;
#X obj 557 52 \$1;
#X obj 38 243 route;
#X obj 68 220 expr \$1 + 200;
#X obj 623 365 b2f;
#X obj 745 486 t b f;
#X obj 623 389 b2f;
#X obj 745 609 s djcrrpl;
#X obj 38 266 unpack 1 1 1 1 2 2 2 2 3 3 3 3 4 4 4 4 5 5 5 5 6 6 6 6 7 7 7 7, f 63;
#X text 542 367 cmd_pos_dif;
#X text 542 391 cmd_vel_dif;
#X obj 623 413 b2f;
#X obj 623 437 b2f;
#X text 542 415 cmd_pos_avg;
#X text 542 439 cmd_vel_avg;
#X obj 623 461 b2f;
#X obj 623 485 b2f;
#X obj 623 509 b2f;
#X text 542 463 cmd_max_trq;
#X text 542 487 cmd_max_vel;
#X text 542 511 cmd_max_acc;
#X obj 745 585 pack 0 f f f f f f f;
#X connect 0 0 16 0;
#X connect 1 0 12 2;
#X connect 2 0 6 0;
#X connect 4 0 15 0;
#X connect 4 0 17 0;
#X connect 4 0 19 0;
#X connect 6 0 12 0;
#X connect 6 1 12 1;
#X connect 9 0 12 3;
#X connect 11 0 2 0;
#X connect 11 1 1 0;
#X connect 11 2 1 1;
#X connect 11 3 1 2;
#X connect 11 4 1 3;
#X connect 11 5 9 0;
#X connect 11 6 9 1;
#X connect 11 7 9 2;
#X connect 11 8 9 3;
#X connect 12 0 8 0;
#X connect 15 0 16 1;
#X connect 16 0 11 0;
#X connect 16 1 18 0;
#X connect 17 0 5 0;
#X connect 17 0 12 0;
#X connect 17 0 37 0;
#X connect 18 0 24 0;
#X connect 19 0 18 1;
#X connect 20 0 21 0;
#X connect 21 0 37 0;
#X connect 21 1 37 1;
#X connect 22 0 37 2;
#X connect 24 0 20 0;
#X connect 24 1 20 1;
#X connect 24 2 20 2;
#X connect 24 3 20 3;
#X connect 24 4 22 0;
#X connect 24 5 22 1;
#X connect 24 6 22 2;
#X connect 24 7 22 3;
#X connect 24 8 27 0;
#X connect 24 9 27 1;
#X connect 24 10 27 2;
#X connect 24 11 27 3;
#X connect 24 12 28 0;
#X connect 24 13 28 1;
#X connect 24 14 28 2;
#X connect 24 15 28 3;
#X connect 24 16 31 0;
#X connect 24 17 31 1;
#X connect 24 18 31 2;
#X connect 24 19 31 3;
#X connect 24 20 32 0;
#X connect 24 21 32 1;
#X connect 24 22 32 2;
#X connect 24 23 32 3;
#X connect 24 24 33 0;
#X connect 24 25 33 1;
#X connect 24 26 33 2;
#X connect 24 27 33 3;
#X connect 27 0 37 3;
#X connect 28 0 37 4;
#X connect 31 0 37 5;
#X connect 32 0 37 6;
#X connect 33 0 37 7;
#X connect 37 0 23 0;
#X coords 0 -1 1 1 140 90 1 400 150;
