#N canvas 950 1099 960 984 12;
#X declare -path f2b2f;
#X obj 6 27 r rplbytes;
#X obj 511 192 b2f;
#X floatatom 559 173 4 0 0 0 - - - 0;
#X obj 6 73 route \$1;
#X obj 0 -2 declare -path f2b2f;
#X obj 557 52 f \$1;
#X obj 557 29 loadbang;
#X floatatom 557 150 3 0 0 0 - - - 16;
#X obj 591 172 t b f;
#X obj 55 50 expr \$1 >= 100;
#X obj 6 50 spigot;
#X obj 557 75 - 100;
#X text 525 152 suid;
#X obj 591 380 s djrpl;
#X obj 511 216 b2f;
#X obj 511 240 b2f;
#X obj 511 264 b2f;
#X obj 511 288 b2f;
#X obj 511 312 b2f;
#X obj 6 96 unpack 0 0 0 0 0 0 0 0 0 0 0 0 0 0 0 0 0 0 0 0 0 0 0 0 0, f 57;
#X text 402 194 tgt_del_pos_dif;
#X text 402 217 tgt_del_pos_avg;
#X text 430 242 tgt_vel_dif;
#X text 430 265 tgt_vel_avg;
#X text 416 291 tgt_vel_rot_l;
#X text 416 314 tgt_vel_rot_r;
#X text 513 172 fixing;
#X obj 591 356 pack 0 f f f f f f f;
#X connect 0 0 10 0;
#X connect 1 0 27 2;
#X connect 2 0 8 0;
#X connect 3 0 19 0;
#X connect 5 0 11 0;
#X connect 6 0 5 0;
#X connect 6 0 9 0;
#X connect 8 0 27 0;
#X connect 8 1 27 1;
#X connect 9 0 10 1;
#X connect 10 0 3 0;
#X connect 11 0 7 0;
#X connect 11 0 27 0;
#X connect 14 0 27 3;
#X connect 15 0 27 4;
#X connect 16 0 27 5;
#X connect 17 0 27 6;
#X connect 18 0 27 7;
#X connect 19 0 2 0;
#X connect 19 1 1 0;
#X connect 19 2 1 1;
#X connect 19 3 1 2;
#X connect 19 4 1 3;
#X connect 19 5 14 0;
#X connect 19 6 14 1;
#X connect 19 7 14 2;
#X connect 19 8 14 3;
#X connect 19 9 15 0;
#X connect 19 10 15 1;
#X connect 19 11 15 2;
#X connect 19 12 15 3;
#X connect 19 13 16 0;
#X connect 19 14 16 1;
#X connect 19 15 16 2;
#X connect 19 16 16 3;
#X connect 19 17 17 0;
#X connect 19 18 17 1;
#X connect 19 19 17 2;
#X connect 19 20 17 3;
#X connect 19 21 18 0;
#X connect 19 22 18 1;
#X connect 19 23 18 2;
#X connect 19 24 18 3;
#X connect 27 0 13 0;
#X coords 0 -1 1 1 189 186 1 400 150;
