#N canvas -10 19 960 984 12;
#X declare -path f2b2f;
#X obj 6 27 r rplbytes;
#X obj 462 192 b2f;
#X floatatom 510 173 4 0 0 0 - - - 0;
#X obj 0 -2 declare -path f2b2f;
#X obj 557 29 loadbang;
#X floatatom 508 150 3 0 0 0 - - - 16;
#X obj 542 172 t b f;
#X text 476 152 suid;
#X text 464 172 fixing;
#X obj 558 250 s sjrpl;
#X obj 6 96 unpack 0 0 0 0 0;
#X obj 558 226 pack 0 f f;
#X text 409 194 tgt_rot;
#X obj 38 50 expr \$1 + 100;
#X obj 556 52 \$1;
#X obj 38 243 route;
#X obj 68 220 expr \$1 + 200;
#X obj 623 365 b2f;
#X obj 745 486 t b f;
#X obj 623 389 b2f;
#X obj 623 413 b2f;
#X obj 623 437 b2f;
#X obj 623 461 b2f;
#X text 542 414 cmd_max_trq;
#X text 542 438 cmd_max_vel;
#X text 542 462 cmd_max_acc;
#X obj 6 73 route;
#X obj 38 266 unpack 1 1 1 1 2 2 2 2 3 3 3 3 4 4 4 4 5 5 5 5, f 47;
#X text 542 367 cmd_pos_out;
#X text 542 391 cmd_vel_out;
#X obj 745 585 pack 0 f f f f f;
#X obj 745 609 s sjcrrpl;
#X connect 0 0 26 0;
#X connect 1 0 11 2;
#X connect 2 0 6 0;
#X connect 4 0 13 0;
#X connect 4 0 14 0;
#X connect 4 0 16 0;
#X connect 6 0 11 0;
#X connect 6 1 11 1;
#X connect 10 0 2 0;
#X connect 10 1 1 0;
#X connect 10 2 1 1;
#X connect 10 3 1 2;
#X connect 10 4 1 3;
#X connect 11 0 9 0;
#X connect 13 0 26 1;
#X connect 14 0 5 0;
#X connect 14 0 11 0;
#X connect 14 0 30 0;
#X connect 15 0 27 0;
#X connect 16 0 15 1;
#X connect 17 0 18 0;
#X connect 18 0 30 0;
#X connect 18 1 30 1;
#X connect 19 0 30 2;
#X connect 20 0 30 3;
#X connect 21 0 30 4;
#X connect 22 0 30 5;
#X connect 26 0 10 0;
#X connect 26 1 15 0;
#X connect 27 0 17 0;
#X connect 27 1 17 1;
#X connect 27 2 17 2;
#X connect 27 3 17 3;
#X connect 27 4 19 0;
#X connect 27 5 19 1;
#X connect 27 6 19 2;
#X connect 27 7 19 3;
#X connect 27 8 20 0;
#X connect 27 9 20 1;
#X connect 27 10 20 2;
#X connect 27 11 20 3;
#X connect 27 12 21 0;
#X connect 27 13 21 1;
#X connect 27 14 21 2;
#X connect 27 15 21 3;
#X connect 27 16 22 0;
#X connect 27 17 22 1;
#X connect 27 18 22 2;
#X connect 27 19 22 3;
#X connect 30 0 31 0;
#X coords 0 -1 1 1 140 66 1 400 150;
