#N canvas -10 1099 960 984 12;
#X declare -path f2b2f;
#X obj 6 27 r rplbytes;
#X obj 511 192 b2f;
#X floatatom 559 173 4 0 0 0 - - - 0;
#X obj 6 73 route \$1;
#X obj 0 -2 declare -path f2b2f;
#X obj 557 52 f \$1;
#X obj 557 29 loadbang;
#X floatatom 557 150 3 0 0 0 - - - 16;
#X obj 591 172 t b f;
#X obj 55 50 expr \$1 >= 100;
#X obj 6 50 spigot;
#X obj 557 75 - 100;
#X text 525 152 suid;
#X obj 511 216 b2f;
#X obj 511 240 b2f;
#X text 513 172 fixing;
#X obj 591 276 pack 0 f f f f f f f;
#X obj 6 96 unpack 0 0 0 0 0 0 0 0 0 0 0 0 0, f 57;
#X text 402 194 tgt_del_pos_out;
#X text 430 219 tgt_vel_out;
#X text 416 242 tgt_vel_rotor;
#X obj 591 300 s sjrpl;
#X connect 0 0 10 0;
#X connect 1 0 16 2;
#X connect 2 0 8 0;
#X connect 3 0 17 0;
#X connect 5 0 11 0;
#X connect 6 0 5 0;
#X connect 6 0 9 0;
#X connect 8 0 16 0;
#X connect 8 1 16 1;
#X connect 9 0 10 1;
#X connect 10 0 3 0;
#X connect 11 0 7 0;
#X connect 11 0 16 0;
#X connect 13 0 16 3;
#X connect 14 0 16 4;
#X connect 16 0 21 0;
#X connect 17 0 2 0;
#X connect 17 1 1 0;
#X connect 17 2 1 1;
#X connect 17 3 1 2;
#X connect 17 4 1 3;
#X connect 17 5 13 0;
#X connect 17 6 13 1;
#X connect 17 7 13 2;
#X connect 17 8 13 3;
#X connect 17 9 14 0;
#X connect 17 10 14 1;
#X connect 17 11 14 2;
#X connect 17 12 14 3;
#X coords 0 -1 1 1 189 114 1 400 150;
