#N canvas 661 307 545 410 12;
#X obj 70 64 vradio 30 1 0 3 empty empty mode -20 -8 0 14 #fcfcfc #000000
#000000 0;
#X floatatom 86 45 2 0 0 0 - - - 10;
#X obj 46 7 inlet;
#X obj 70 183 outlet;
#X obj 100 85 select 0 1 2;
#X symbolatom 38 157 6 0 0 0 - - - 16;
#X msg 100 108 Stop;
#X msg 138 108 MoveTo;
#X obj 100 132 pack s;
#X msg 221 108 UNKNOWN;
#X msg 190 108 Fix;
#X obj 100 30 loadbang;
#X obj 6 62 bng 40 250 50 0 empty empty Stop 2 21 0 15 #faff00 #ff0400
#000000;
#X msg 100 53 0, f 1;
#X obj 6 7 inlet;
#X obj 6 184 outlet;
#X connect 0 0 1 0;
#X connect 0 0 4 0;
#X connect 0 0 3 0;
#X connect 2 0 0 0;
#X connect 4 0 6 0;
#X connect 4 1 7 0;
#X connect 4 2 10 0;
#X connect 4 3 9 0;
#X connect 6 0 8 0;
#X connect 7 0 8 0;
#X connect 8 0 5 0;
#X connect 9 0 8 0;
#X connect 10 0 8 0;
#X connect 11 0 13 0;
#X connect 12 0 13 0;
#X connect 12 0 15 0;
#X connect 13 0 0 0;
#X connect 14 0 12 0;
#X coords 0 -1 1 1 100 150 1 0 32;
