#N canvas -10 -8 1280 1011 12;
#X obj 51 119 cnv 20 618 311 empty empty DifferentialJoint 45 -9 0 16 #f3e6f0 #000000 0;
#X obj 53 176 md;
#X obj 111 119 do;
#X obj 441 162 mtva;
#X floatatom 53 143 4 0 0 2 SUID - - 24;
#X obj 804 152 loadbang;
#X obj 539 513 f2b;
#X obj 383 513 f2b;
#X obj 305 513 f2b;
#X obj 617 513 f2b;
#X obj 227 513 f2b;
#X obj 176 569 s cmdbytes;
#X obj 695 513 f2b;
#X obj 681 411 expr \$1 < 100;
#X obj 616 462 spigot;
#X obj 570 462 spigot;
#X obj 524 462 spigot;
#X obj 287 462 spigot;
#X obj 241 462 spigot;
#X obj 195 462 spigot;
#X obj 104 462 spigot;
#X obj 333 462 spigot;
#X obj 175 543 pack \$1 0 0 0 0 0 0 0 0 0 0 0 0 0 0 0 0 0 0 0 0 0 0 0 0 0 0 0 0 0 0, f 84;
#X obj 461 513 f2b;
#X obj 53 7 r all_stop;
#X obj 111 27 r all_outpos0;
#X obj 175 47 r all_outvel0;
#X obj 867 152 r rpl;
#X obj 681 338 unpack f f f f f f f f;
#X obj 841 338 unpack f f f f f f f f;
#X obj 841 315 route;
#X obj 681 315 route;
#X obj 441 7 r all_maxtva0;
#X obj 472 27 r all_maxtrq;
#X obj 566 27 r all_maxvel;
#X obj 660 27 r all_maxacc;
#X floatatom 449 124 5 0 0 2 mode - - 0;
#X floatatom 506 124 5 0 0 2 fault - - 0;
#X floatatom 563 124 5 0 0 2 encvld - - 0;
#X floatatom 620 124 5 0 0 2 mottmp - - 0;
#X floatatom 449 143 5 0 0 2 - - - 0;
#X floatatom 506 143 5 0 0 2 - - - 0;
#X floatatom 563 143 5 0 0 2 - - - 0;
#X floatatom 620 143 5 0 0 2 - - - 0;
#X obj 804 175 \$1, f 2;
#X obj 913 191 expr \$1 + 1;
#X obj 104 485 t b f;
#X obj 195 485 t b f;
#X obj 241 485 t b f;
#X obj 287 485 t b f;
#X obj 333 485 t b f;
#X obj 524 485 t b f;
#X obj 570 485 t b f;
#X obj 616 485 t b f;
#X connect 1 1 20 0;
#X connect 2 0 19 0;
#X connect 2 1 18 0;
#X connect 2 2 17 0;
#X connect 2 3 21 0;
#X connect 3 1 16 0;
#X connect 3 2 15 0;
#X connect 3 3 14 0;
#X connect 5 0 13 0;
#X connect 5 0 44 0;
#X connect 5 0 45 0;
#X connect 6 0 22 19;
#X connect 6 1 22 20;
#X connect 6 2 22 21;
#X connect 6 3 22 22;
#X connect 7 0 22 11;
#X connect 7 1 22 12;
#X connect 7 2 22 13;
#X connect 7 3 22 14;
#X connect 8 0 22 7;
#X connect 8 1 22 8;
#X connect 8 2 22 9;
#X connect 8 3 22 10;
#X connect 9 0 22 23;
#X connect 9 1 22 24;
#X connect 9 2 22 25;
#X connect 9 3 22 26;
#X connect 10 0 22 3;
#X connect 10 1 22 4;
#X connect 10 2 22 5;
#X connect 10 3 22 6;
#X connect 12 0 22 27;
#X connect 12 1 22 28;
#X connect 12 2 22 29;
#X connect 12 3 22 30;
#X connect 13 0 14 1;
#X connect 13 0 15 1;
#X connect 13 0 16 1;
#X connect 13 0 17 1;
#X connect 13 0 18 1;
#X connect 13 0 19 1;
#X connect 13 0 20 1;
#X connect 13 0 21 1;
#X connect 16 0 51 0;
#X connect 16 0 52 0;
#X connect 16 0 53 0;
#X connect 17 0 49 0;
#X connect 18 0 48 0;
#X connect 19 0 47 0;
#X connect 20 0 22 2;
#X connect 20 0 46 0;
#X connect 21 0 50 0;
#X connect 22 0 11 0;
#X connect 23 0 22 15;
#X connect 23 1 22 16;
#X connect 23 2 22 17;
#X connect 23 3 22 18;
#X connect 24 0 1 0;
#X connect 25 0 2 0;
#X connect 26 0 2 1;
#X connect 27 0 31 0;
#X connect 27 0 30 0;
#X connect 28 0 36 0;
#X connect 28 1 37 0;
#X connect 28 2 38 0;
#X connect 28 3 3 5;
#X connect 28 4 3 2;
#X connect 28 5 2 4;
#X connect 28 6 39 0;
#X connect 28 7 2 5;
#X connect 29 0 40 0;
#X connect 29 1 41 0;
#X connect 29 2 42 0;
#X connect 29 3 3 6;
#X connect 29 4 3 3;
#X connect 29 5 2 2;
#X connect 29 6 43 0;
#X connect 29 7 2 3;
#X connect 30 0 29 0;
#X connect 31 0 28 0;
#X connect 32 0 3 0;
#X connect 33 0 3 1;
#X connect 34 0 3 4;
#X connect 35 0 3 7;
#X connect 44 0 4 0;
#X connect 44 0 31 1;
#X connect 45 0 30 1;
#X connect 46 0 22 0;
#X connect 47 0 22 0;
#X connect 47 1 10 0;
#X connect 48 0 22 0;
#X connect 48 1 8 0;
#X connect 49 0 22 0;
#X connect 49 1 7 0;
#X connect 50 0 22 0;
#X connect 50 1 23 0;
#X connect 51 0 22 0;
#X connect 51 1 6 0;
#X connect 52 0 22 0;
#X connect 52 1 9 0;
#X connect 53 0 22 0;
#X connect 53 1 12 0;
#X coords 0 -1 1 1 620 331 1 50 100;
