#N canvas -10 19 960 984 12;
#X obj 116 47 inlet;
#X obj 156 47 inlet;
#X obj 196 47 inlet;
#X obj 487 67 inlet;
#X obj 524 67 inlet;
#X obj 560 67 inlet;
#X obj 53 537 outlet;
#X obj 116 557 outlet;
#X obj 196 557 outlet;
#X obj 451 577 outlet;
#X obj 524 577 outlet;
#X obj 597 577 outlet;
#X obj 451 67 inlet;
#X obj 54 27 inlet;
#X obj 104 27 inlet;
#X obj 53 160 md;
#X obj 116 103 do;
#X obj 451 103 mtva;
#X floatatom 56 133 5 0 0 2 SUID - - 16;
#X text 51 99 DifferentialJoint;
#X obj 104 537 outlet;
#X obj 4 7 inlet;
#X obj 4 517 outlet;
#X obj 237 47 inlet;
#X obj 277 47 inlet;
#X obj 317 47 inlet;
#X obj 358 47 inlet;
#X obj 398 47 inlet;
#X obj 439 47 inlet;
#X obj 597 67 inlet;
#X obj 633 67 inlet;
#X obj 670 67 inlet;
#X obj 277 557 outlet;
#X obj 358 557 outlet;
#X obj 439 557 outlet;
#X obj 670 577 outlet;
#X obj 3 73 loadbang;
#X obj 3 96 f \$1;
#X obj 436 430 f2b;
#X obj 358 430 f2b;
#X obj 280 430 f2b;
#X obj 514 430 f2b;
#X obj 202 430 f2b;
#X obj 134 443 t b;
#X obj 170 489 s cmdbytes;
#X obj 170 463 pack \$1 0 0 0 0 0 0 0 0 0 0 0 0 0 0 0 0 0 0 0 0 0 0 0 0 0 0 0 0 0, f 81;
#X obj 592 430 f2b;
#X obj 670 430 f2b;
#X connect 0 0 16 0;
#X connect 1 0 16 1;
#X connect 2 0 16 2;
#X connect 3 0 17 1;
#X connect 4 0 17 2;
#X connect 5 0 17 3;
#X connect 12 0 17 0;
#X connect 13 0 15 0;
#X connect 14 0 15 1;
#X connect 15 0 6 0;
#X connect 15 1 20 0;
#X connect 15 1 45 1;
#X connect 15 1 43 0;
#X connect 16 0 7 0;
#X connect 16 1 8 0;
#X connect 16 1 42 0;
#X connect 16 1 43 0;
#X connect 16 2 32 0;
#X connect 16 2 40 0;
#X connect 16 2 43 0;
#X connect 16 3 33 0;
#X connect 16 3 39 0;
#X connect 16 3 43 0;
#X connect 16 4 34 0;
#X connect 16 4 38 0;
#X connect 16 4 43 0;
#X connect 17 0 9 0;
#X connect 17 1 10 0;
#X connect 17 1 41 0;
#X connect 17 1 43 0;
#X connect 17 2 11 0;
#X connect 17 2 46 0;
#X connect 17 2 43 0;
#X connect 17 3 35 0;
#X connect 17 3 47 0;
#X connect 17 3 43 0;
#X connect 18 0 22 0;
#X connect 21 0 18 0;
#X connect 23 0 16 3;
#X connect 24 0 16 4;
#X connect 25 0 16 5;
#X connect 26 0 16 6;
#X connect 27 0 16 7;
#X connect 28 0 16 8;
#X connect 29 0 17 4;
#X connect 30 0 17 5;
#X connect 31 0 17 6;
#X connect 36 0 37 0;
#X connect 37 0 18 0;
#X connect 38 0 45 14;
#X connect 38 1 45 15;
#X connect 38 2 45 16;
#X connect 38 3 45 17;
#X connect 39 0 45 10;
#X connect 39 1 45 11;
#X connect 39 2 45 12;
#X connect 39 3 45 13;
#X connect 40 0 45 6;
#X connect 40 1 45 7;
#X connect 40 2 45 8;
#X connect 40 3 45 9;
#X connect 41 0 45 18;
#X connect 41 1 45 19;
#X connect 41 2 45 20;
#X connect 41 3 45 21;
#X connect 42 0 45 2;
#X connect 42 1 45 3;
#X connect 42 2 45 4;
#X connect 42 3 45 5;
#X connect 43 0 45 0;
#X connect 45 0 44 0;
#X connect 46 0 45 22;
#X connect 46 1 45 23;
#X connect 46 2 45 24;
#X connect 46 3 45 25;
#X connect 47 0 45 26;
#X connect 47 1 45 27;
#X connect 47 2 45 28;
#X connect 47 3 45 29;
#X coords 0 -1 1 1 630 316 1 50 100;
