#N canvas -10 -8 1280 1011 12;
#X obj 51 119 cnv 20 628 309 empty empty DifferentialJoint 456 -9 0 16 #f3e6f0 #000000 0;
#X obj 116 47 inlet;
#X obj 156 47 inlet;
#X obj 196 47 inlet;
#X obj 487 67 inlet;
#X obj 524 67 inlet;
#X obj 560 67 inlet;
#X obj 53 627 outlet;
#X obj 116 647 outlet;
#X obj 196 647 outlet;
#X obj 451 667 outlet;
#X obj 524 667 outlet;
#X obj 597 667 outlet;
#X obj 451 67 inlet;
#X obj 53 27 inlet;
#X obj 104 27 inlet;
#X obj 53 176 md;
#X obj 116 119 do;
#X obj 451 119 mtva;
#X floatatom 56 149 5 0 0 2 SUID - - 16;
#X obj 104 627 outlet;
#X obj 4 7 inlet;
#X obj 4 607 outlet;
#X obj 237 47 inlet;
#X obj 277 47 inlet;
#X obj 317 47 inlet;
#X obj 358 47 inlet;
#X obj 398 47 inlet;
#X obj 439 47 inlet;
#X obj 597 67 inlet;
#X obj 633 67 inlet;
#X obj 670 67 inlet;
#X obj 277 647 outlet;
#X obj 358 647 outlet;
#X obj 439 647 outlet;
#X obj 670 667 outlet;
#X obj 3 73 loadbang;
#X obj 3 96 f \$1;
#X obj 539 513 f2b;
#X obj 383 513 f2b;
#X obj 305 513 f2b;
#X obj 617 513 f2b;
#X obj 227 513 f2b;
#X obj 176 577 s cmdbytes;
#X obj 695 513 f2b;
#X obj 710 408 expr \$1 < 100;
#X obj 670 462 spigot;
#X obj 597 462 spigot;
#X obj 524 462 spigot;
#X obj 358 462 spigot;
#X obj 277 462 spigot;
#X obj 196 462 spigot;
#X obj 104 462 spigot;
#X obj 175 515 t b;
#X obj 439 462 spigot;
#X obj 175 551 pack \$1 0 0 0 0 0 0 0 0 0 0 0 0 0 0 0 0 0 0 0 0 0 0 0 0 0 0 0 0 0 0, f 84;
#X obj 461 513 f2b;
#X connect 1 0 17 0;
#X connect 2 0 17 1;
#X connect 3 0 17 2;
#X connect 4 0 18 1;
#X connect 5 0 18 2;
#X connect 6 0 18 3;
#X connect 13 0 18 0;
#X connect 14 0 16 0;
#X connect 15 0 16 1;
#X connect 16 0 7 0;
#X connect 16 1 20 0;
#X connect 16 1 52 0;
#X connect 17 0 8 0;
#X connect 17 1 9 0;
#X connect 17 1 51 0;
#X connect 17 2 32 0;
#X connect 17 2 50 0;
#X connect 17 3 33 0;
#X connect 17 3 49 0;
#X connect 17 4 34 0;
#X connect 17 4 54 0;
#X connect 18 0 10 0;
#X connect 18 1 11 0;
#X connect 18 1 48 0;
#X connect 18 2 12 0;
#X connect 18 2 47 0;
#X connect 18 3 35 0;
#X connect 18 3 46 0;
#X connect 19 0 22 0;
#X connect 21 0 19 0;
#X connect 23 0 17 3;
#X connect 24 0 17 4;
#X connect 25 0 17 5;
#X connect 26 0 17 6;
#X connect 27 0 17 7;
#X connect 28 0 17 8;
#X connect 29 0 18 4;
#X connect 30 0 18 5;
#X connect 31 0 18 6;
#X connect 36 0 37 0;
#X connect 36 0 45 0;
#X connect 37 0 19 0;
#X connect 38 0 55 19;
#X connect 38 1 55 20;
#X connect 38 2 55 21;
#X connect 38 3 55 22;
#X connect 39 0 55 11;
#X connect 39 1 55 12;
#X connect 39 2 55 13;
#X connect 39 3 55 14;
#X connect 40 0 55 7;
#X connect 40 1 55 8;
#X connect 40 2 55 9;
#X connect 40 3 55 10;
#X connect 41 0 55 23;
#X connect 41 1 55 24;
#X connect 41 2 55 25;
#X connect 41 3 55 26;
#X connect 42 0 55 3;
#X connect 42 1 55 4;
#X connect 42 2 55 5;
#X connect 42 3 55 6;
#X connect 44 0 55 27;
#X connect 44 1 55 28;
#X connect 44 2 55 29;
#X connect 44 3 55 30;
#X connect 45 0 46 1;
#X connect 45 0 47 1;
#X connect 45 0 48 1;
#X connect 45 0 49 1;
#X connect 45 0 50 1;
#X connect 45 0 51 1;
#X connect 45 0 52 1;
#X connect 45 0 54 1;
#X connect 46 0 44 0;
#X connect 46 0 53 0;
#X connect 47 0 41 0;
#X connect 47 0 53 0;
#X connect 48 0 38 0;
#X connect 48 0 53 0;
#X connect 49 0 39 0;
#X connect 49 0 53 0;
#X connect 50 0 40 0;
#X connect 50 0 53 0;
#X connect 51 0 42 0;
#X connect 51 0 53 0;
#X connect 52 0 55 2;
#X connect 52 0 53 0;
#X connect 53 0 55 0;
#X connect 54 0 56 0;
#X connect 54 0 53 0;
#X connect 55 0 43 0;
#X connect 56 0 55 15;
#X connect 56 1 55 16;
#X connect 56 2 55 17;
#X connect 56 3 55 18;
#X coords 0 -1 1 1 630 331 1 50 100;
