#N canvas 715 179 1280 1011 12;
#X obj 0 470 max_tva;
#X obj 0 70 dj_ad;
#X obj 24 225 cmd_mode;
#X obj 106 15 inlet;
#X obj 146 15 inlet;
#X obj 186 15 inlet;
#X obj 268 15 inlet;
#X obj 308 15 inlet;
#X obj 348 15 inlet;
#X obj 24 675 outlet;
#X obj 73 675 outlet;
#X obj 120 675 outlet;
#X obj 169 675 outlet;
#X obj 216 675 outlet;
#X obj 263 675 outlet;
#X obj 228 15 inlet;
#X obj 24 15 inlet;
#X obj 64 15 inlet;
#X floatatom 260 50 4 0 0 0 - - - 36;
#X text 228 50 DJID;
#X connect 0 0 12 0;
#X connect 0 1 13 0;
#X connect 0 2 14 0;
#X connect 1 0 10 0;
#X connect 1 1 11 0;
#X connect 2 0 9 0;
#X connect 3 0 1 0;
#X connect 4 0 1 1;
#X connect 5 0 1 2;
#X connect 6 0 0 1;
#X connect 7 0 0 2;
#X connect 8 0 0 3;
#X connect 15 0 0 0;
#X connect 16 0 2 0;
#X connect 17 0 2 1;
#X coords 0 -1 1 1 350 605 1 0 50;
