#N canvas 680 231 791 721 12;
#X obj 83 126 hsl 256 15 -0.5 0.5 0 1 empty empty o^- -2 -8 0 14 #fcfcfc #000000 #000000 12750 1;
#X floatatom 80 418 8 0 0 0 - - - 16;
#X floatatom 5 107 8 -0.5 0.5 0 - - - 12;
#X obj 204 150 vsl 15 256 0.5 -0.5 0 1 empty empty o^+ 20 6 0 14 #ffffff #000000 #000000 12750 1;
#X floatatom 5 129 8 -0.5 0.5 0 - - - 12;
#X floatatom 204 418 8 0 0 0 - - - 16;
#X obj 5 70 bng 30 250 50 0 empty empty 0 8 16 0 25 #faff00 #ff0400 #000000;
#X msg 350 100 0, f 1;
#X obj 80 455 outlet;
#X obj 204 455 outlet;
#X obj 5 15 inlet;
#X obj 135 15 inlet;
#X obj 275 15 inlet;
#X obj 350 50 loadbang;
#X obj 496 64 vsl 18 245 1 -1 0 1 empty empty cmd -1 -8 0 10 #ffffff #000000 #000000 5900 1;
#X floatatom 435 145 8 -0.5 0.5 2 cmd.dj_avg - - 12;
#X floatatom 435 320 8 0 0 2 cmd - - 12;
#X msg 530 101 0, f 2;
#X obj 435 71 bng 58 250 50 0 empty empty 0 17 30 0 40 #faff00 #ff0400 #000000;
#X obj 517 64 vsl 9 245 1 -1 0 1 empty empty rpl -3 -8 0 8 #bbbbbb #000000 #000000 14100 1;
#X floatatom 495 325 6 0 0 2 rpl - - 8;
#X obj 174 15 inlet;
#X obj 314 15 inlet;
#X floatatom 435 183 8 -0.5 0.5 2 cmd.dj_dif - - 12;
#X connect 0 0 1 0;
#X connect 1 0 8 0;
#X connect 2 0 0 0;
#X connect 3 0 5 0;
#X connect 4 0 3 0;
#X connect 5 0 9 0;
#X connect 6 0 7 0;
#X connect 7 0 3 0;
#X connect 7 0 0 0;
#X connect 10 0 6 0;
#X connect 11 0 2 0;
#X connect 12 0 4 0;
#X connect 13 0 7 0;
#X connect 14 0 16 0;
#X connect 15 0 14 0;
#X connect 17 0 14 0;
#X connect 18 0 17 0;
#X connect 19 0 20 0;
#X coords 0 -1 1 1 350 292 1 0 50;
