#N canvas -10 19 960 984 12;
#X obj 186 121 vsl 16 220 -1 1 0 1 empty empty empty -20 4 0 10 #c6ffc7 #000000 #000000 7700 1;
#X floatatom 10 137 8 -0.5 0.5 2 c.avgpos - - 12;
#X floatatom 10 247 8 0 0 2 c.avgpos - - 12;
#X msg 346 81 0, f 2;
#X obj 122 370 outlet;
#X obj 10 63 bng 58 250 50 0 empty empty 0 17 30 0 40 #faff00 #ff0400 #000000;
#X obj 346 50 loadbang;
#X obj 10 15 inlet;
#X obj 59 15 inlet;
#X obj 205 121 vsl 8 220 -1 1 0 1 empty empty empty -3 -8 0 8 #bbbbbb #000000 #000000 15200 1;
#X floatatom 10 278 11 0 0 2 r.avgpos - - 8;
#X obj 98 15 inlet;
#X obj 10 370 outlet;
#X obj 218 121 vsl 16 220 -1 1 0 1 empty empty empty -1 -8 0 10 #c6ffc7 #000000 #000000 8000 1;
#X obj 237 121 vsl 8 220 -1 1 0 1 empty empty empty -3 -8 0 8 #bbbbbb #000000 #000000 18050 1;
#X obj 183 370 outlet;
#X text 180 341 opos;
#X text 212 341 ovel;
#X floatatom 10 172 8 -0.5 0.5 2 c.avgvel - - 12;
#X obj 143 15 inlet;
#X obj 182 15 inlet;
#X floatatom 10 309 8 0 0 2 c.avgvel - - 12;
#X floatatom 10 340 11 0 0 2 r.avgvel - - 8;
#X obj 104 55 hsl 220 16 -1 1 0 0 empty empty empty -2 -10 0 12 #c6ffc7 #000000 #000000 0 1;
#X obj 104 74 hsl 220 8 -1 1 0 0 empty empty empty -2 -10 0 12 #bbbbbb #000000 #000000 0 1;
#X obj 104 87 hsl 220 16 -1 1 0 0 empty empty empty -2 -10 0 12 #c6ffc7 #000000 #000000 0 1;
#X obj 104 106 hsl 220 8 -1 1 0 0 empty empty empty -2 -10 0 12 #bbbbbb #000000 #000000 0 1;
#X text 69 52 opos;
#X text 69 84 ovel;
#X obj 249 15 inlet;
#X obj 288 15 inlet;
#X obj 333 15 inlet;
#X obj 372 15 inlet;
#X floatatom 80 137 8 -0.5 0.5 2 c.difpos - - 12;
#X floatatom 80 172 8 -0.5 0.5 2 c.difvel - - 12;
#X floatatom 80 247 8 0 0 2 c.difpos - - 12;
#X floatatom 80 278 11 0 0 2 r.difpos - - 8;
#X floatatom 80 309 8 0 0 2 c.difvel - - 12;
#X floatatom 80 340 11 0 0 2 r.difvel - - 8;
#X obj 292 370 outlet;
#X obj 353 370 outlet;
#X connect 0 0 2 0;
#X connect 0 0 4 0;
#X connect 1 0 0 0;
#X connect 3 0 0 0;
#X connect 3 0 13 0;
#X connect 3 0 14 0;
#X connect 3 0 9 0;
#X connect 3 0 23 0;
#X connect 3 0 24 0;
#X connect 3 0 25 0;
#X connect 3 0 26 0;
#X connect 5 0 3 0;
#X connect 5 0 12 0;
#X connect 6 0 3 0;
#X connect 7 0 5 0;
#X connect 8 0 1 0;
#X connect 9 0 10 0;
#X connect 11 0 9 0;
#X connect 13 0 15 0;
#X connect 13 0 21 0;
#X connect 14 0 22 0;
#X connect 18 0 13 0;
#X connect 19 0 18 0;
#X connect 20 0 14 0;
#X connect 23 0 35 0;
#X connect 23 0 39 0;
#X connect 24 0 36 0;
#X connect 25 0 37 0;
#X connect 25 0 40 0;
#X connect 26 0 38 0;
#X connect 29 0 33 0;
#X connect 30 0 24 0;
#X connect 31 0 34 0;
#X connect 32 0 26 0;
#X connect 33 0 23 0;
#X connect 34 0 25 0;
#X coords 0 -1 1 1 330 310 2 0 50;
