#N canvas 0 0 2560 1011 10;
#X obj 13 676 max_tva;
#X obj 13 520 cmd_mode;
#X obj 733 13 dj_cmd;
#X obj 1083 13 dj_cmd;
#X obj 1433 13 saj_cmd;
#X obj 383 13 saj_cmd;
#X obj 733 629 dj_cmd;
#X obj 1083 629 dj_cmd;
#X obj 1433 629 saj_cmd;
#X obj 383 629 saj_cmd;
#X obj 2412 1520 vsl 15 1280 0 127 0 0 empty empty empty 0 -9 0 10 #fcfcfc #000000 #000000 0 1;
#X obj 2431 1502 hsl 1280 15 0 127 0 0 empty empty empty -2 -8 0 10 #fcfcfc #000000 #000000 0 1;
#X obj 1794 324 dj_cmd;
#X obj 133 393 bng 120 250 50 0 empty empty 0 30 60 0 100 #faff00 #ff0400 #000000;
#X obj 13 393 bng 120 250 50 0 empty empty STOP 0 61 0 50 #ff0400 #00faff #000000;
#X obj 188 968 bng 40 250 50 0 empty empty Zero 3 21 0 15 #0400ff #ff8300 #ffffff;
#X text 52 979 Do NOT use this often!;
#X obj 188 1009 bng 40 250 50 0 empty empty Conf 3 21 0 15 #9c00ff #00ff04 #ffffff;
#X text 52 1020 Do NOT use this often!;
#X text 76 1000 STOP ALL required!;
#X obj 229 980 bng 18 250 50 0 empty empty empty 0 -9 0 10 #fcfcfc #000000 #000000;
#X connect 0 0 5 4;
#X connect 0 0 2 5;
#X connect 0 0 3 5;
#X connect 0 0 4 4;
#X connect 0 0 9 4;
#X connect 0 0 6 5;
#X connect 0 0 7 5;
#X connect 0 0 8 4;
#X connect 0 0 12 5;
#X connect 0 1 5 5;
#X connect 0 1 2 6;
#X connect 0 1 3 6;
#X connect 0 1 4 5;
#X connect 0 1 9 5;
#X connect 0 1 6 6;
#X connect 0 1 7 6;
#X connect 0 1 8 5;
#X connect 0 1 12 6;
#X connect 0 2 5 6;
#X connect 0 2 2 7;
#X connect 0 2 3 7;
#X connect 0 2 4 6;
#X connect 0 2 9 6;
#X connect 0 2 6 7;
#X connect 0 2 7 7;
#X connect 0 2 8 6;
#X connect 0 2 12 7;
#X connect 0 3 5 7;
#X connect 0 3 2 8;
#X connect 0 3 3 8;
#X connect 0 3 4 7;
#X connect 0 3 9 7;
#X connect 0 3 6 8;
#X connect 0 3 7 8;
#X connect 0 3 8 7;
#X connect 0 3 12 8;
#X connect 1 0 5 0;
#X connect 1 0 2 0;
#X connect 1 0 3 0;
#X connect 1 0 4 0;
#X connect 1 0 9 0;
#X connect 1 0 6 0;
#X connect 1 0 7 0;
#X connect 1 0 8 0;
#X connect 1 0 12 0;
#X connect 1 1 5 1;
#X connect 1 1 2 1;
#X connect 1 1 3 1;
#X connect 1 1 4 1;
#X connect 1 1 9 1;
#X connect 1 1 6 1;
#X connect 1 1 7 1;
#X connect 1 1 8 1;
#X connect 1 1 12 1;
#X connect 13 0 0 0;
#X connect 14 0 1 0;
#X connect 14 0 20 0;
#X connect 15 0 14 0;
#X connect 17 0 14 0;
