#N canvas 0 0 1920 984 10;
#X declare -path f2b2f;
#X obj 2412 1520 vsl 15 1280 0 127 0 0 empty empty empty 0 -9 0 10 #fcfcfc #000000 #000000 0 1;
#X obj 2431 1502 hsl 1280 15 0 127 0 0 empty empty empty -2 -8 0 10 #fcfcfc #000000 #000000 0 1;
#X obj 131 31 bng 120 250 50 0 empty empty 0 30 60 0 100 #faff00 #ff0400 #000000;
#X obj 11 31 bng 120 250 50 0 empty empty STOP 0 61 0 50 #ff0400 #00faff #000000;
#X obj 188 968 bng 40 250 50 0 empty empty Zero 3 21 0 15 #0400ff #ff8300 #ffffff;
#X text 52 979 Do NOT use this often!;
#X obj 188 1009 bng 40 250 50 0 empty empty Conf 3 21 0 15 #9c00ff #00ff04 #ffffff;
#X text 52 1020 Do NOT use this often!;
#X text 76 1000 STOP ALL required!;
#X obj 229 980 bng 18 250 50 0 empty empty empty 0 -9 0 10 #fcfcfc #000000 #000000;
#X obj 480 229 tva;
#X floatatom 365 473 5 0 0 0 - - - 36;
#X obj 365 229 bng 112 250 50 0 empty empty 0 27 58 0 100 #faff00 #ff0400 #000000;
#X obj 302 258 md;
#X obj 922 110 sj;
#X obj 922 89 1, f 65;
#X obj 922 68 loadbang;
#X obj 974 68 bng 18 250 50 0 empty empty empty 0 -9 0 10 #fcfcfc #000000 #000000;
#X obj 0 -2 declare -path f2b2f;
#X connect 2 0 10 0;
#X connect 3 0 9 0;
#X connect 3 0 13 0;
#X connect 4 0 3 0;
#X connect 6 0 3 0;
#X connect 12 0 11 0;
#X connect 15 0 14 0;
#X connect 16 0 15 0;
#X connect 17 0 15 0;
