#N canvas -10 19 1920 984 10;
#X declare -path f2b2f;
#X obj 3689 2321 vsl 15 1280 0 127 0 0 empty empty empty 0 -9 0 10 #fcfcfc #000000 #000000 0 1;
#X obj 3708 2303 hsl 1280 15 0 127 0 0 empty empty empty -2 -8 0 10 #fcfcfc #000000 #000000 0 1;
#X obj 11 31 bng 120 250 50 0 empty empty STOP 0 61 0 50 #ff0400 #00faff #000000;
#X obj 366 70 bng 40 250 50 0 empty empty Zero 3 21 0 15 #0400ff #ff8300 #ffffff;
#X text 230 81 Do NOT use this often!;
#X obj 366 111 bng 40 250 50 0 empty empty Conf 3 21 0 15 #9c00ff #00ff04 #ffffff;
#X text 230 122 Do NOT use this often!;
#X text 254 102 STOP ALL required!;
#X floatatom 69 477 5 -1 1 0 - - - 36;
#X obj 69 216 bng 112 250 50 0 empty empty 0 27 58 0 100 #faff00 #ff0400 #000000;
#X obj 11 272 md;
#X obj 0 -2 declare -path f2b2f;
#X obj 181 216 mtva;
#N canvas 0 27 1920 984 boot 0;
#X restore 119 -2 pd boot;
#X obj 1011 1386 sj 1;
#X obj 1444 1386 sj 7;
#X obj 1011 435 sj 6;
#X obj 1444 435 sj 12;
#X obj 813 1069 dj 101;
#X obj 813 752 dj 102;
#X obj 1444 1069 dj 103;
#X obj 1444 752 dj 104;
#X obj 1125 118 dj 105;
#X obj 452 51 udpcs;
#X obj 69 331 0;
#X text 4851 3546 random-entity;
#X connect 2 0 10 0;
#X connect 2 0 12 0;
#X connect 2 0 9 0;
#X connect 3 0 2 0;
#X connect 5 0 2 0;
#X connect 9 0 24 0;
#X connect 24 0 8 0;
