#N canvas 705 236 822 619 12;
#X obj 70 119 hsl 192 15 0 64 0 1 empty empty max_vel -64 6 0 14 #fcfcfc
#000000 #000000 0 1;
#X floatatom 67 98 8 0 64 0 - - - 12;
#X obj 70 162 hsl 192 15 0 32 0 1 empty empty max_acc -64 6 0 14 #fcfcfc
#000000 #000000 0 1;
#X floatatom 67 141 8 0 64 0 - - - 12;
#X obj 70 76 hsl 192 15 0 64 0 1 empty empty max_trq -64 6 0 14 #fcfcfc
#000000 #000000 0 1;
#X floatatom 67 55 8 0 64 0 - - - 12;
#X floatatom 67 208 8 0 0 0 - - - 16;
#X floatatom 154 208 8 0 0 0 - - - 16;
#X floatatom 241 208 8 0 0 0 - - - 16;
#X obj 67 244 outlet;
#X obj 114 244 outlet;
#X obj 161 244 outlet;
#X obj 67 14 inlet;
#X obj 107 14 inlet;
#X obj 147 14 inlet;
#X obj 350 62 loadbang;
#X obj 299 62 bng 40 250 50 0 empty empty 0 13 21 0 25 #faff00 #ff0400
#000000;
#X msg 350 92 0, f 1;
#X obj 25 14 inlet;
#X obj 18 244 outlet;
#X connect 0 0 7 0;
#X connect 0 0 10 0;
#X connect 1 0 0 0;
#X connect 2 0 8 0;
#X connect 2 0 11 0;
#X connect 3 0 2 0;
#X connect 4 0 6 0;
#X connect 4 0 9 0;
#X connect 5 0 4 0;
#X connect 12 0 4 0;
#X connect 13 0 0 0;
#X connect 14 0 2 0;
#X connect 15 0 17 0;
#X connect 16 0 17 0;
#X connect 16 0 19 0;
#X connect 17 0 0 0;
#X connect 17 0 4 0;
#X connect 17 0 2 0;
#X connect 18 0 16 0;
#X coords 0 -1 1 1 350 185 1 0 50;
