#N canvas 1092 170 545 410 12;
#X obj 10 92 vradio 38 1 0 4 empty empty empty 34 30 0 14 #c6ffc7 #000000 #000000 0;
#X obj 46 5 inlet;
#X obj 62 301 outlet;
#X symbolatom 3 262 7 0 0 2 cmd.mode - - 12;
#X msg 60 102 Stop;
#X msg 98 102 MoveTo;
#X obj 60 125 pack s;
#X msg 219 102 UNKNOWN;
#X msg 188 102 Fix;
#X obj 60 32 loadbang;
#X obj 3 36 bng 52 250 50 0 empty empty Stop 6 26 0 17 #faff00 #ff0400 #000000;
#X msg 60 55 0, f 1;
#X obj 4 5 inlet;
#X obj 4 301 outlet;
#X obj 60 78 select 0 1 2 3;
#X msg 150 102 MTWV;
#X connect 0 0 2 0;
#X connect 0 0 14 0;
#X connect 1 0 0 0;
#X connect 4 0 6 0;
#X connect 5 0 6 0;
#X connect 6 0 3 0;
#X connect 7 0 6 0;
#X connect 8 0 6 0;
#X connect 9 0 11 0;
#X connect 10 0 11 0;
#X connect 10 0 13 0;
#X connect 11 0 0 0;
#X connect 12 0 10 0;
#X connect 14 0 4 0;
#X connect 14 1 5 0;
#X connect 14 2 15 0;
#X connect 14 3 8 0;
#X connect 14 4 7 0;
#X connect 15 0 6 0;
#X coords 0 -1 1 1 58 253 2 0 32;
