#N canvas 1297 99 545 410 12;
#X obj 4 102 vradio 52 1 0 3 empty empty empty 34 30 0 14 #c6ffc7 #000000 #000000 0;
#X obj 46 5 inlet;
#X obj 62 301 outlet;
#X obj 60 78 select 0 1 2;
#X symbolatom 3 274 7 0 0 2 cmd - - 12;
#X msg 60 101 Stop;
#X msg 98 101 MoveTo;
#X obj 60 125 pack s;
#X msg 181 101 UNKNOWN;
#X msg 150 101 Fix;
#X obj 60 32 loadbang;
#X obj 4 49 bng 52 250 50 0 empty empty Stop 6 26 0 17 #faff00 #ff0400 #000000;
#X msg 60 55 0, f 1;
#X obj 4 5 inlet;
#X obj 4 301 outlet;
#X connect 0 0 3 0;
#X connect 0 0 2 0;
#X connect 1 0 0 0;
#X connect 3 0 5 0;
#X connect 3 1 6 0;
#X connect 3 2 9 0;
#X connect 3 3 8 0;
#X connect 5 0 7 0;
#X connect 6 0 7 0;
#X connect 7 0 4 0;
#X connect 8 0 7 0;
#X connect 9 0 7 0;
#X connect 10 0 12 0;
#X connect 11 0 12 0;
#X connect 11 0 14 0;
#X connect 12 0 0 0;
#X connect 13 0 11 0;
#X coords 0 -1 1 1 59 263 1 0 32;
