#N canvas 1306 134 677 777 12;
#X obj 0 470 max_tva;
#X obj 15 226 cmd_mode;
#X obj 97 15 inlet;
#X obj 137 15 inlet;
#X obj 219 15 inlet;
#X obj 259 15 inlet;
#X obj 299 15 inlet;
#X obj 15 675 outlet;
#X obj 64 675 outlet;
#X obj 113 675 outlet;
#X obj 160 675 outlet;
#X obj 207 675 outlet;
#X obj 179 15 inlet;
#X obj 15 15 inlet;
#X obj 55 15 inlet;
#X obj 158 121 saj_o;
#X floatatom 260 50 4 0 0 0 - - - 36;
#X text 221 49 SAJID;
#X connect 0 0 9 0;
#X connect 0 1 10 0;
#X connect 0 2 11 0;
#X connect 1 0 7 0;
#X connect 2 0 15 0;
#X connect 3 0 15 1;
#X connect 4 0 0 1;
#X connect 5 0 0 2;
#X connect 6 0 0 3;
#X connect 12 0 0 0;
#X connect 13 0 1 0;
#X connect 14 0 1 1;
#X connect 15 0 8 0;
#X coords 0 -1 1 1 350 605 1 0 50;
