#N canvas -10 -8 1280 1011 12;
#X obj 51 119 cnv 20 430 309 empty empty SingleAxisJoint 278 -9 0 16 #ebebff #000000 0;
#X obj 116 50 inlet;
#X obj 147 50 inlet;
#X obj 289 70 inlet;
#X obj 326 70 inlet;
#X obj 362 70 inlet;
#X obj 253 70 inlet;
#X obj 53 30 inlet;
#X obj 104 30 inlet;
#X floatatom 56 133 7 0 0 2 SUID - - 12;
#X obj 178 50 inlet;
#X obj 53 160 md;
#X obj 116 119 so;
#X obj 399 70 inlet;
#X obj 435 70 inlet;
#X obj 472 70 inlet;
#X obj 53 586 outlet;
#X obj 116 606 outlet;
#X obj 3 10 inlet;
#X obj 253 626 outlet;
#X obj 104 587 outlet;
#X obj 178 606 outlet;
#X obj 326 626 outlet;
#X obj 399 626 outlet;
#X obj 472 626 outlet;
#X obj 3 566 outlet;
#X obj 253 119 mtva;
#X obj 241 606 outlet;
#X obj 209 50 inlet;
#X obj 241 50 inlet;
#X obj 3 73 loadbang;
#X obj 3 96 f \$1;
#X obj 427 493 f2b;
#X obj 349 493 f2b;
#X obj 271 493 f2b;
#X obj 505 493 f2b;
#X obj 193 493 f2b;
#X obj 125 497 t b;
#X obj 161 552 s cmdbytes;
#X obj 492 411 expr \$1 < 100;
#X obj 472 452 spigot;
#X obj 399 452 spigot;
#X obj 326 452 spigot;
#X obj 241 452 spigot;
#X obj 178 452 spigot;
#X obj 104 452 spigot;
#X obj 161 526 pack \$1 0 0 0 0 0 0 0 0 0 0 0 0 0 0 0 0 0 0 0 0 0, f 59;
#X connect 1 0 12 0;
#X connect 2 0 12 1;
#X connect 3 0 26 1;
#X connect 4 0 26 2;
#X connect 5 0 26 3;
#X connect 6 0 26 0;
#X connect 7 0 11 0;
#X connect 8 0 11 1;
#X connect 9 0 25 0;
#X connect 10 0 12 2;
#X connect 11 0 16 0;
#X connect 11 1 20 0;
#X connect 11 1 45 0;
#X connect 12 0 17 0;
#X connect 12 1 21 0;
#X connect 12 1 44 0;
#X connect 12 2 27 0;
#X connect 12 2 43 0;
#X connect 13 0 26 4;
#X connect 14 0 26 5;
#X connect 15 0 26 6;
#X connect 18 0 9 0;
#X connect 26 0 19 0;
#X connect 26 1 22 0;
#X connect 26 1 42 0;
#X connect 26 2 23 0;
#X connect 26 2 41 0;
#X connect 26 3 24 0;
#X connect 26 3 40 0;
#X connect 28 0 12 3;
#X connect 29 0 12 4;
#X connect 30 0 31 0;
#X connect 30 0 39 0;
#X connect 31 0 9 0;
#X connect 32 0 46 14;
#X connect 32 1 46 15;
#X connect 32 2 46 16;
#X connect 32 3 46 17;
#X connect 33 0 46 10;
#X connect 33 1 46 11;
#X connect 33 2 46 12;
#X connect 33 3 46 13;
#X connect 34 0 46 6;
#X connect 34 1 46 7;
#X connect 34 2 46 8;
#X connect 34 3 46 9;
#X connect 35 0 46 18;
#X connect 35 1 46 19;
#X connect 35 2 46 20;
#X connect 35 3 46 21;
#X connect 36 0 46 2;
#X connect 36 1 46 3;
#X connect 36 2 46 4;
#X connect 36 3 46 5;
#X connect 37 0 46 0;
#X connect 39 0 40 1;
#X connect 39 0 41 1;
#X connect 39 0 42 1;
#X connect 39 0 43 1;
#X connect 39 0 44 1;
#X connect 39 0 45 1;
#X connect 40 0 35 0;
#X connect 40 0 37 0;
#X connect 41 0 32 0;
#X connect 41 0 37 0;
#X connect 42 0 33 0;
#X connect 42 0 37 0;
#X connect 43 0 34 0;
#X connect 43 0 37 0;
#X connect 44 0 36 0;
#X connect 44 0 37 0;
#X connect 45 0 37 0;
#X connect 45 0 46 1;
#X connect 46 0 38 0;
#X coords 0 -1 1 1 432 331 1 50 100;
