#N canvas -10 19 960 984 12;
#X obj 116 50 inlet;
#X obj 161 50 inlet;
#X obj 253 70 inlet;
#X obj 290 70 inlet;
#X obj 326 70 inlet;
#X obj 217 70 inlet;
#X obj 53 30 inlet;
#X obj 105 30 inlet;
#X floatatom 53 122 5 0 0 2 SAJ_ID - - 16;
#X obj 217 103 tva;
#X obj 207 50 inlet;
#X obj 53 150 md;
#X obj 116 103 so;
#X obj 363 70 inlet;
#X obj 399 70 inlet;
#X obj 436 70 inlet;
#X obj 53 446 outlet;
#X obj 116 466 outlet;
#X obj 3 10 inlet;
#X obj 217 486 outlet;
#X obj 105 447 outlet;
#X obj 207 466 outlet;
#X obj 290 486 outlet;
#X obj 363 486 outlet;
#X obj 436 486 outlet;
#X obj 647 287 float;
#X obj 3 426 outlet;
#X connect 0 0 12 0;
#X connect 1 0 12 1;
#X connect 2 0 9 1;
#X connect 3 0 9 2;
#X connect 4 0 9 3;
#X connect 5 0 9 0;
#X connect 6 0 11 0;
#X connect 7 0 11 1;
#X connect 8 0 26 0;
#X connect 9 0 19 0;
#X connect 9 1 22 0;
#X connect 9 2 23 0;
#X connect 9 3 24 0;
#X connect 10 0 12 2;
#X connect 11 0 16 0;
#X connect 11 1 20 0;
#X connect 12 0 17 0;
#X connect 12 1 21 0;
#X connect 13 0 9 4;
#X connect 14 0 9 5;
#X connect 15 0 9 6;
#X connect 18 0 8 0;
#X coords 0 -1 1 1 396 316 2 50 100;
