#N canvas -10 19 960 984 12;
#X obj 116 50 inlet;
#X obj 147 50 inlet;
#X obj 289 70 inlet;
#X obj 326 70 inlet;
#X obj 362 70 inlet;
#X obj 253 70 inlet;
#X obj 53 30 inlet;
#X obj 105 30 inlet;
#X floatatom 56 133 5 0 0 2 SUID - - 16;
#X obj 178 50 inlet;
#X obj 53 160 md;
#X obj 116 103 so;
#X obj 399 70 inlet;
#X obj 435 70 inlet;
#X obj 472 70 inlet;
#X obj 53 536 outlet;
#X obj 116 556 outlet;
#X obj 3 10 inlet;
#X obj 253 576 outlet;
#X obj 104 537 outlet;
#X obj 178 556 outlet;
#X obj 326 576 outlet;
#X obj 399 576 outlet;
#X obj 472 576 outlet;
#X obj 3 516 outlet;
#X obj 253 103 mtva;
#X obj 241 556 outlet;
#X obj 209 50 inlet;
#X obj 241 50 inlet;
#X text 51 99 SingleAxisJoint;
#X obj 3 73 loadbang;
#X obj 3 96 f \$1;
#X obj 436 430 f2b;
#X obj 358 430 f2b;
#X obj 280 430 f2b;
#X obj 514 430 f2b;
#X floatatom 1046 445 2 0 0 2 - - - 12;
#X obj 1087 445 f2b;
#X obj 1161 445 f2b;
#X obj 1235 445 f2b;
#X obj 1309 445 f2b;
#X obj 1090 484 pack \$1 0 0 0 0 0 0 0 0 0 0 0 0 0 0 0 0 0;
#X obj 170 463 pack \$1 0 0 0 0 0 0 0 0 0 0 0 0 0 0 0 0 0 0 0 0 0;
#X obj 202 430 f2b;
#X obj 134 443 t b;
#X obj 170 489 s cmdbytes;
#X connect 0 0 11 0;
#X connect 1 0 11 1;
#X connect 2 0 25 1;
#X connect 3 0 25 2;
#X connect 4 0 25 3;
#X connect 5 0 25 0;
#X connect 6 0 10 0;
#X connect 7 0 10 1;
#X connect 8 0 24 0;
#X connect 9 0 11 2;
#X connect 10 0 15 0;
#X connect 10 1 19 0;
#X connect 10 1 42 1;
#X connect 10 1 44 0;
#X connect 11 0 16 0;
#X connect 11 1 20 0;
#X connect 11 1 43 0;
#X connect 11 1 44 0;
#X connect 11 2 26 0;
#X connect 11 2 34 0;
#X connect 11 2 44 0;
#X connect 12 0 25 4;
#X connect 13 0 25 5;
#X connect 14 0 25 6;
#X connect 17 0 8 0;
#X connect 25 0 18 0;
#X connect 25 1 21 0;
#X connect 25 1 33 0;
#X connect 25 1 44 0;
#X connect 25 2 22 0;
#X connect 25 2 32 0;
#X connect 25 2 44 0;
#X connect 25 3 23 0;
#X connect 25 3 35 0;
#X connect 25 3 44 0;
#X connect 27 0 11 3;
#X connect 28 0 11 4;
#X connect 30 0 31 0;
#X connect 31 0 8 0;
#X connect 32 0 42 14;
#X connect 32 1 42 15;
#X connect 32 2 42 16;
#X connect 32 3 42 17;
#X connect 33 0 42 10;
#X connect 33 1 42 11;
#X connect 33 2 42 12;
#X connect 33 3 42 13;
#X connect 34 0 42 6;
#X connect 34 1 42 7;
#X connect 34 2 42 8;
#X connect 34 3 42 9;
#X connect 35 0 42 18;
#X connect 35 1 42 19;
#X connect 35 2 42 20;
#X connect 35 3 42 21;
#X connect 36 0 41 0;
#X connect 37 0 41 1;
#X connect 37 1 41 2;
#X connect 37 2 41 3;
#X connect 37 3 41 4;
#X connect 38 0 41 5;
#X connect 38 1 41 6;
#X connect 38 2 41 7;
#X connect 38 3 41 8;
#X connect 39 0 41 9;
#X connect 39 1 41 10;
#X connect 39 2 41 11;
#X connect 39 3 41 12;
#X connect 40 0 41 13;
#X connect 40 1 41 14;
#X connect 40 2 41 15;
#X connect 40 3 41 16;
#X connect 42 0 45 0;
#X connect 43 0 42 2;
#X connect 43 1 42 3;
#X connect 43 2 42 4;
#X connect 43 3 42 5;
#X connect 44 0 42 0;
#X coords 0 -1 1 1 432 316 1 50 100;
