#N canvas 950 19 294 436 12;
#X obj 64 64 vsl 18 275 -1 1 0 1 empty empty cmd -1 -8 0 10 #c6ffc7 #000000 #000000 13700 1;
#X floatatom 3 137 8 -0.5 0.5 2 cmd.opos - - 12;
#X floatatom 3 247 8 0 0 2 cmd.opos - - 12;
#X msg 189 101 0, f 2;
#X obj 64 370 outlet;
#X obj 3 63 bng 58 250 50 0 empty empty 0 17 30 0 40 #faff00 #ff0400 #000000;
#X obj 189 50 loadbang;
#X obj 3 15 inlet;
#X obj 48 15 inlet;
#X obj 85 64 vsl 9 275 -1 1 0 1 empty empty rpl -3 -8 0 8 #bbbbbb #000000 #000000 13700 1;
#X floatatom 3 278 11 0 0 2 rpl.opos - - 8;
#X obj 87 15 inlet;
#X obj 3 370 outlet;
#X obj 99 64 vsl 18 275 -1 1 0 1 empty empty cmd -1 -8 0 10 #c6ffc7 #000000 #000000 13700 1;
#X obj 120 64 vsl 9 275 -1 1 0 1 empty empty rpl -3 -8 0 8 #bbbbbb #000000 #000000 13700 1;
#X obj 125 370 outlet;
#X text 62 339 opos;
#X text 97 339 ovel;
#X floatatom 3 172 8 -0.5 0.5 2 cmd.ovel - - 12;
#X obj 132 15 inlet;
#X obj 171 15 inlet;
#X floatatom 3 309 8 0 0 2 cmd.ovel - - 12;
#X floatatom 3 340 11 0 0 2 rpl.ovel - - 8;
#X connect 0 0 2 0;
#X connect 0 0 4 0;
#X connect 1 0 0 0;
#X connect 3 0 0 0;
#X connect 3 0 13 0;
#X connect 3 0 14 0;
#X connect 3 0 9 0;
#X connect 5 0 3 0;
#X connect 5 0 12 0;
#X connect 6 0 3 0;
#X connect 7 0 5 0;
#X connect 8 0 1 0;
#X connect 9 0 10 0;
#X connect 11 0 9 0;
#X connect 13 0 15 0;
#X connect 13 0 21 0;
#X connect 14 0 22 0;
#X connect 18 0 13 0;
#X connect 19 0 18 0;
#X connect 20 0 14 0;
#X coords 0 -1 1 1 132 310 2 0 50;
