#N canvas 1013 281 234 453 12;
#X obj 64 64 vsl 18 290 -1 1 0 1 empty empty cmd -1 -8 0 10 #c6ffc7 #000000 #000000 14700 1;
#X floatatom 3 145 8 -0.5 0.5 2 cmd - - 12;
#X floatatom 3 311 8 0 0 2 cmd - - 12;
#X msg 99 101 0, f 2;
#X obj 64 370 outlet;
#X obj 3 71 bng 58 250 50 0 empty empty 0 17 30 0 40 #faff00 #ff0400 #000000;
#X obj 99 50 loadbang;
#X obj 3 15 inlet;
#X obj 64 15 inlet;
#X obj 85 64 vsl 9 290 -1 1 0 1 empty empty rpl -3 -8 0 8 #bbbbbb #000000 #000000 15676 1;
#X floatatom 3 343 11 0 0 2 rpl - - 8;
#X obj 103 15 inlet;
#X obj 3 370 outlet;
#X connect 0 0 2 0;
#X connect 0 0 4 0;
#X connect 1 0 0 0;
#X connect 3 0 0 0;
#X connect 5 0 3 0;
#X connect 5 0 12 0;
#X connect 6 0 3 0;
#X connect 7 0 5 0;
#X connect 8 0 1 0;
#X connect 9 0 10 0;
#X connect 11 0 9 0;
#X coords 0 -1 1 1 98 310 1 0 50;
