#N canvas 950 19 960 984 12;
#X floatatom 158 305 2 0 0 2 - - - 12;
#X obj 199 305 f2b;
#X obj 273 305 f2b;
#X obj 347 304 f2b;
#X obj 421 304 f2b;
#X obj 202 344 pack 0 0 0 0 0 0 0 0 0 0 0 0 0 0 0 0 0;
#X connect 0 0 5 0;
#X connect 1 0 5 1;
#X connect 1 1 5 2;
#X connect 1 2 5 3;
#X connect 1 3 5 4;
#X connect 2 0 5 5;
#X connect 2 1 5 6;
#X connect 2 2 5 7;
#X connect 2 3 5 8;
#X connect 3 0 5 9;
#X connect 3 1 5 10;
#X connect 3 2 5 11;
#X connect 3 3 5 12;
#X connect 4 0 5 13;
#X connect 4 1 5 14;
#X connect 4 2 5 15;
#X connect 4 3 5 16;
