#N canvas 0 27 1920 984 12;
#X obj 235 136 bng 15 250 50 0 empty empty empty 17 7 0 10 #fcfcfc #000000 #000000;
#X obj 103 77 loadbang;
#X obj 161 155 prepend send;
#X obj 103 180 netsend -u -b;
#X msg 295 103 disconnect;
#X msg 103 103 connect 192.168.0.103 8888;
#X obj 161 131 r cmdbytes;
#X obj 198 180 tgl 20 0 empty empty empty 0 -10 0 12 #fcfcfc #000000 #000000 0 1;
#X connect 1 0 5 0;
#X connect 2 0 3 0;
#X connect 3 0 7 0;
#X connect 4 0 3 0;
#X connect 5 0 3 0;
#X connect 6 0 0 0;
#X connect 6 0 2 0;
#X coords 0 -1 1 1 277 103 1 100 100;
