#N canvas 1270 -8 1280 1011 12;
#X declare -path f2b2f;
#X obj 6 27 r rplbytes;
#X obj 653 203 b2f;
#X floatatom 701 127 4 0 0 0 - - - 0;
#X floatatom 701 146 4 0 0 0 - - - 0;
#X floatatom 701 165 4 0 0 0 - - - 0;
#X floatatom 701 184 4 0 0 0 - - - 0;
#X obj 653 227 b2f;
#X obj 653 251 b2f;
#X obj 653 275 b2f;
#X obj 653 299 b2f;
#X obj 653 323 b2f;
#X obj 653 347 b2f;
#X obj 653 371 b2f;
#X obj 6 52 route \$1;
#X obj 0 -2 declare -path f2b2f;
#X text 669 127 mode;
#X text 606 184 encoder_valid;
#X text 662 165 fault;
#X text 628 204 pos;
#X text 628 229 vel;
#X text 628 251 trq;
#X text 614 301 power;
#X text 600 348 voltage;
#X text 600 372 brdtemp;
#X text 600 324 mtrtemp;
#X obj 620 49 f \$1;
#X obj 620 26 loadbang;
#X floatatom 620 155 3 0 0 0 - - - 16;
#X text 602 161 id;
#X text 655 145 trjcpt;
#X obj 653 395 b2f;
#X obj 6 76 unpack 0 0 0 0 0 0 0 0 0 0 0 0 0 0 0 0 0 0 0 0 0 0 0 0 0 0 0 0 0 0 0 0 0 0 0 0 0 0 0 0, f 86;
#X text 607 277 outpos;
#X text 607 396 outvel;
#X obj 832 463 s rpl;
#X obj 832 440 pack \$1 f f f f f f f f;
#X obj 735 126 t b f;
#X obj 735 164 t b f;
#X obj 735 183 t b f;
#X obj 735 231 t b f;
#X obj 735 255 t b f;
#X obj 735 279 t b f;
#X obj 735 327 t b f;
#X obj 735 399 t b f;
#X connect 0 0 13 0;
#X connect 2 0 36 0;
#X connect 4 0 37 0;
#X connect 5 0 38 0;
#X connect 6 0 39 0;
#X connect 7 0 40 0;
#X connect 8 0 41 0;
#X connect 10 0 42 0;
#X connect 13 0 31 0;
#X connect 25 0 27 0;
#X connect 26 0 25 0;
#X connect 30 0 43 0;
#X connect 31 0 2 0;
#X connect 31 1 3 0;
#X connect 31 2 4 0;
#X connect 31 3 5 0;
#X connect 31 4 1 0;
#X connect 31 5 1 1;
#X connect 31 6 1 2;
#X connect 31 7 1 3;
#X connect 31 8 6 0;
#X connect 31 9 6 1;
#X connect 31 10 6 2;
#X connect 31 11 6 3;
#X connect 31 12 7 0;
#X connect 31 13 7 1;
#X connect 31 14 7 2;
#X connect 31 15 7 3;
#X connect 31 16 8 0;
#X connect 31 17 8 1;
#X connect 31 18 8 2;
#X connect 31 19 8 3;
#X connect 31 20 9 0;
#X connect 31 21 9 1;
#X connect 31 22 9 2;
#X connect 31 23 9 3;
#X connect 31 24 10 0;
#X connect 31 25 10 1;
#X connect 31 26 10 2;
#X connect 31 27 10 3;
#X connect 31 28 11 0;
#X connect 31 29 11 1;
#X connect 31 30 11 2;
#X connect 31 31 11 3;
#X connect 31 32 12 0;
#X connect 31 33 12 1;
#X connect 31 34 12 2;
#X connect 31 35 12 3;
#X connect 31 36 30 0;
#X connect 31 37 30 1;
#X connect 31 38 30 2;
#X connect 31 39 30 3;
#X connect 35 0 34 0;
#X connect 36 0 35 0;
#X connect 36 1 35 1;
#X connect 37 0 35 0;
#X connect 37 1 35 2;
#X connect 38 0 35 0;
#X connect 38 1 35 3;
#X connect 39 0 35 0;
#X connect 39 1 35 4;
#X connect 40 0 35 0;
#X connect 40 1 35 5;
#X connect 41 0 35 0;
#X connect 41 1 35 6;
#X connect 42 0 35 0;
#X connect 42 1 35 7;
#X connect 43 0 35 0;
#X connect 43 1 35 8;
#X coords 0 -1 1 1 133 300 1 600 125;
